<svg xmlns="http://www.w3.org/2000/svg" width="624.242" height="378.719" viewBox="0 0 624.242 378.719"><defs><style>.a,.b{fill:#3f3d56;}.b{opacity:0.3;}.c{fill:#f2f2f2;}.d{fill:#2f2e41;}.e{fill:#ffb9b9;}.f,.j{opacity:0.1;}.g{fill:#d0cde1;}.h{fill:#a0616a;}.i,.j{fill:#face48;}.k{fill:#ffc1c7;}.l{fill:#cbceda;}.m{fill:#a8a8a8;}.n{opacity:0.2;}</style></defs><g transform="translate(0 0)"><ellipse class="a" cx="227.245" cy="20.446" rx="227.245" ry="20.446" transform="translate(169.752 337.827)"/><rect class="b" width="246.658" height="167.063" transform="translate(532.581 167.063) rotate(180)"/><rect class="c" width="73.035" height="79.595" transform="translate(443.802 15.307)"/><rect class="c" width="70.411" height="4.811" transform="translate(398.756 20.117) rotate(180)"/><rect class="c" width="24.928" height="4.811" transform="translate(468.729 111.958) rotate(180)"/><rect class="c" width="71.286" height="4.811" transform="translate(515.962 120.705) rotate(180)"/><rect class="c" width="101.462" height="4.811" transform="translate(415.374 37.611) rotate(180)"/><rect class="c" width="101.462" height="4.811" transform="translate(415.374 51.168) rotate(180)"/><rect class="c" width="101.462" height="4.811" transform="translate(415.374 64.726) rotate(180)"/><rect class="c" width="101.462" height="4.811" transform="translate(415.374 78.284) rotate(180)"/><rect class="c" width="101.462" height="4.811" transform="translate(415.374 91.841) rotate(180)"/><rect class="c" width="101.462" height="4.811" transform="translate(415.374 105.398) rotate(180)"/><rect class="c" width="101.462" height="4.811" transform="translate(415.374 118.956) rotate(180)"/><path class="d" d="M842.891,224.623a12.919,12.919,0,0,1,3.537-1.774,90.177,90.177,0,0,1,24.918-5.424c7.409-.525,15.439.1,21.226,4.755a7.3,7.3,0,0,1,2.153,2.509A9.19,9.19,0,0,1,895,229.8a5.777,5.777,0,0,1-.5,1.925c-.779,1.483-2.7,2-4.361,1.824s-3.228-.882-4.871-1.209a21.784,21.784,0,0,0-3.076-.313l-10.3-.558c-6.406-.347-12.9-.688-19.181.605a19.111,19.111,0,0,0-5.542,1.91c-1.435.806-2.4,1.962-3.733.474C841.094,231.845,839.8,227.039,842.891,224.623Z" transform="translate(-388.121 -163.866)"/><path class="c" d="M869.473,235.878s13.857-6.212,19.113.956-2.867,4.3-2.867,4.3L876.641,244l-10.034-1.911Z" transform="translate(-398.74 -170.565)"/><path class="e" d="M872.741,226.824s1.911,9.079.478,11.468,8.123,5.734,8.123,5.734l9.078-3.823s-2.389-14.812,0-17.679Z" transform="translate(-401.29 -166.05)"/><path class="f" d="M872.741,226.824s1.911,9.079.478,11.468,8.123,5.734,8.123,5.734l9.078-3.823s-2.389-14.812,0-17.679Z" transform="translate(-401.29 -166.05)"/><path class="e" d="M889.959,204.141a14.346,14.346,0,0,1-14.334,14.335,13.994,13.994,0,0,1-2.547-.229,14.334,14.334,0,1,1,16.881-14.105Z" transform="translate(-396.529 -152.446)"/><path class="c" d="M892.642,267.513H846.927l1.036-4.5,4.487-19.553,5.187-3.5,0,0,2.436-1.649,1.212-.818s.717.328,1.544.774c.24.136.485.276.73.424,0,0,0,0,0,0a8.568,8.568,0,0,1,1.128.783c.066.061.123.114.179.171.91.91,3.564,5.738,7.955,3.267a6.668,6.668,0,0,0,.643-.4,31.772,31.772,0,0,0,3.267-2.593c.923-.844,1.522-1.5,2.012-1.946a3.182,3.182,0,0,1,.743-.551,1.415,1.415,0,0,1,.669-.162c1.434,0,3.346,2.865,3.346,2.865l.057.166,0,.013L889.6,258.4Z" transform="translate(-390.556 -172.173)"/><path class="d" d="M840.859,265.374h13.855a33.753,33.753,0,0,0-.249-4.793c-.424-3.2-1.465-6.276-2.121-9.433a39.675,39.675,0,0,1-.835-8.414c0-.389.013-.783.048-1.176a5.386,5.386,0,0,1,.757-2.554c.328-.5.778-.932,1.128-1.413a3.268,3.268,0,0,0,.319-.5v0q.066-.13.118-.267a2.167,2.167,0,0,0,.131-.652c.079-1.443-1.229-2.834-2.642-3.429a9.875,9.875,0,0,0-6.188-.249,29.458,29.458,0,0,0-5.817,2.379c-.625.306-1.246.621-1.845.971a9.164,9.164,0,0,0-1.955,1.487,12.378,12.378,0,0,0-2.663,5.742,12.141,12.141,0,0,0-.5,4.9c0,.052.018.109.026.162.521,2.725,2.742,4.771,3.927,7.282,1.373,2.913,1.281,6.306.735,9.481-.026.162-.057.324-.087.486h3.862Z" transform="translate(-384.488 -170.035)"/><path class="d" d="M924.561,245.523a108.284,108.284,0,0,0-3.774,17.5h-19.75q-.774-2.112-1.544-4.229a31.736,31.736,0,0,1-1.054-3.254A15.565,15.565,0,0,1,898,251.62c0-.315.013-.634.039-.949a.014.014,0,0,0,0-.018,15.652,15.652,0,0,1,1.141-4.841,18.04,18.04,0,0,1,1.006-2.042c.918-1.662,2.029-3.228,3.017-4.854a22.267,22.267,0,0,0,1.605-3.114.017.017,0,0,1,0-.013,11.179,11.179,0,0,0,.906-4.351c-.031-1.929-3.293-5.292.253-4.968,4.841.437,9,3.223,12.792,6.4,1.01.848,2,1.727,2.965,2.593,1.5,1.347,3.075,2.816,3.525,4.78a5.08,5.08,0,0,1,.127.953A13.085,13.085,0,0,1,924.561,245.523Z" transform="translate(-411.792 -167.682)"/><path class="e" d="M881.238,245.751A10.681,10.681,0,0,0,879,242.136a8.319,8.319,0,0,0-3.425-1.735,18.732,18.732,0,0,0-5.025-.72c-2.023-.013-4.37.53-5.229,2.362-.682,1.455-.153,3.178.534,4.63a4.54,4.54,0,0,0,1.417,1.914,7.865,7.865,0,0,0,3.036.768,14,14,0,0,1,4.487,2.033l3.544,2.142,6.088,3.68c-.16-.1-.1-4.272-.291-4.956C883.528,250.05,882.172,247.839,881.238,245.751Z" transform="translate(-398.071 -173.184)"/><path class="d" d="M886.292,191.362a3.64,3.64,0,0,0-1.578-2.06,8.344,8.344,0,0,0-.333-2.718c-.868-2.566-2.925-2.419-4.865-3.554-.842-.492-.79-.927-1.228-1.736a6.443,6.443,0,0,0-2.483-2.533,8.932,8.932,0,0,0-4.032-1.71c-3.095-.211-5.467,2.7-8.425,3.634-1.3.412-2.7.429-4.016.818a3.694,3.694,0,0,0-2.814,2.672c-.09.625.069,1.266-.022,1.89-.182,1.241-1.271,2.111-2,3.132-1.612,2.258-1.428,5.448-.139,7.9a11.1,11.1,0,0,0,.93,1.455,8.946,8.946,0,0,0,.982,3.323,16.562,16.562,0,0,0,5.825,5.817,13.776,13.776,0,0,1-.344-2.481,1.712,1.712,0,0,1,.106-.822c.258-.54.94-.683,1.46-.978a3.69,3.69,0,0,0,1.53-3.2c.031-1.238-.231-2.479-.1-3.711a2.027,2.027,0,0,1,.694-1.491,2.4,2.4,0,0,1,1.309-.312c2.207-.09,4.512-.131,6.459-1.174a9.569,9.569,0,0,1,2.01-1.017c1.654-.431,3.345.728,4.3,2.147s1.429,3.108,2.308,4.573,2.4,2.773,4.1,2.6a.68.68,0,0,0,.508-.226.762.762,0,0,0,.094-.433l.1-6.5A9.826,9.826,0,0,0,886.292,191.362Z" transform="translate(-393.223 -147.137)"/><path class="d" d="M836.874,264.888q.466,3.838.564,7.7H825.411V262.482c.061-.245.127-.485.206-.726.752-2.318,2.331-4.26,3.7-6.276.066-.1.135-.2.2-.3a16.437,16.437,0,0,0,1.5-2.7c.2-.464.512-2.707.844-2.9,1.426-.827,2.585,2.707,2.781,3.494.7,2.8,1.308,5.633,1.767,8.489Q836.675,263.223,836.874,264.888Z" transform="translate(-381.61 -177.249)"/><path class="d" d="M923.615,270.672H896.006c-.236-.555-.468-1.111-.713-1.662a48.582,48.582,0,0,0-6.621-10.859,2.874,2.874,0,0,1-.818-1.623,1.372,1.372,0,0,1,.179-.73,4.771,4.771,0,0,1,2.432-1.614,8.377,8.377,0,0,0,2.528-1.592,5.422,5.422,0,0,0,1.461-2.156,4.734,4.734,0,0,0,.184-.743l.385.5c.31.411.625.818.945,1.225,3.061,3.932,6.425,7.806,10.654,10.137a17.929,17.929,0,0,0,3.481,1.483.914.914,0,0,0,.735,0,.89.89,0,0,0,.319-.586c.376-1.574.507-3.2.783-4.793a27.3,27.3,0,0,1,2.882-8.3c.783-1.456,3.328-6.779,4.942-3.424q.7,1.45,1.4,2.908c.293.617.59,1.229.888,1.846a11.48,11.48,0,0,1,1.439,6.429Q923.554,263.9,923.615,270.672Z" transform="translate(-407.574 -175.332)"/><path class="f" d="M844.39,281.235h2.392l-1.356-4.5-1.955-6.486a21.16,21.16,0,0,1-.188,3.284,21.869,21.869,0,0,1-1.907,6.49c-.188.4-.389.8-.551,1.212Z" transform="translate(-388.019 -185.896)"/><path class="f" d="M928.777,265.38a4.672,4.672,0,0,0,.229,2.839,28.6,28.6,0,0,1,1.042,8.3.3.3,0,0,1-.353.362c-1.1.068-2.366.075-3.114-.738Z" transform="translate(-423.678 -183.871)"/><rect class="b" width="246.658" height="167.063" transform="translate(0 1.72)"/><rect class="c" width="73.035" height="79.595" transform="translate(15.744 17.026)"/><rect class="c" width="70.411" height="4.811" transform="translate(133.825 17.026)"/><rect class="c" width="24.928" height="4.811" transform="translate(16.619 108.867)"/><rect class="c" width="71.286" height="4.811" transform="translate(16.619 117.614)"/><rect class="c" width="101.462" height="4.811" transform="translate(117.207 34.52)"/><rect class="c" width="101.462" height="4.811" transform="translate(117.207 48.077)"/><rect class="c" width="101.462" height="4.811" transform="translate(117.207 61.635)"/><rect class="c" width="101.462" height="4.811" transform="translate(117.207 75.192)"/><rect class="c" width="101.462" height="4.811" transform="translate(117.207 88.75)"/><rect class="c" width="101.462" height="4.811" transform="translate(117.207 102.307)"/><rect class="c" width="101.462" height="4.811" transform="translate(117.207 115.865)"/><path class="g" d="M202.32,272.329h-9.495q-1.1-2.945-1.946-5.965a11.917,11.917,0,0,0-3.1-6.311,11.7,11.7,0,0,1-1.334-1.811,8.5,8.5,0,0,1-.84-5.156,13.383,13.383,0,0,1,.245-1.461c.415-1.867,1.111-3.66,1.692-5.48a2.078,2.078,0,0,1,1.7-1.4,3.365,3.365,0,0,1,1.854.214,2.3,2.3,0,0,1,.372.192,5.74,5.74,0,0,1,2.007,3.07q2.972,7.977,5.939,15.954.577,1.548,1.155,3.105c.569,1.522,1.133,3.044,1.614,4.6C202.232,272.027,202.276,272.176,202.32,272.329Z" transform="translate(-115.526 -175.27)"/><path class="d" d="M134.38,171.261a7.27,7.27,0,0,0-4.983,5.106c-.224,1.133-.087,2.311-.275,3.45-.437,2.643-2.512,4.661-4.425,6.536s-3.889,4.053-4.029,6.728c-.153,2.929,1.971,5.673,1.6,8.583-.427,3.381-4,5.572-4.881,8.863a8.527,8.527,0,0,0,1.321,6.506,18.62,18.62,0,0,0,10.258,7.554,42.732,42.732,0,0,0,12.848,1.674c5.28.055,11.012-.4,14.979-3.882a12,12,0,0,0,3.984-7.812c.377-4.036-1.308-8.207-.146-12.09.731-2.444,2.565-4.676,2.292-7.213-.268-2.48-2.434-4.238-3.92-6.242a25.369,25.369,0,0,1-3.054-6.258l-2.823-7.452a8.65,8.65,0,0,0-2.4-3.967c-2.315-1.8-6.039-1.446-8.746-1.075C139.47,170.616,136.8,170.445,134.38,171.261Z" transform="translate(-87.112 -144.198)"/><path class="h" d="M149.89,213.056s.276,8.29-.553,9.119,3.316,6.356,3.316,6.356l7.461-.276,3.869-3.04-3.316-4.421s-1.382-7.185-.276-8.843S149.89,213.056,149.89,213.056Z" transform="translate(-100.437 -161.434)"/><path class="f" d="M149.89,213.056s.276,8.29-.553,9.119,3.316,6.356,3.316,6.356l7.461-.276,3.869-3.04-3.316-4.421s-1.382-7.185-.276-8.843S149.89,213.056,149.89,213.056Z" transform="translate(-100.437 -161.434)"/><circle class="h" cx="9.948" cy="9.948" r="9.948" transform="translate(44.063 34.904)"/><path class="g" d="M143.509,264.2h8.065c.3-.547.586-1.115.914-1.631v0a4.465,4.465,0,0,1,1.469-1.539,5.788,5.788,0,0,0,1.089-.652,2.81,2.81,0,0,0,.665-1.242,19.248,19.248,0,0,0,.91-5.362c.013-.612,0-1.233.035-1.846a7.758,7.758,0,0,1,.184-1.421,11.2,11.2,0,0,1,1.194-2.7q1.64-2.985,3.289-5.97a4.172,4.172,0,0,0,.223-1.749,4.312,4.312,0,0,0-.708-2.244c-.153-.276-.319-.551-.494-.818A18.162,18.162,0,0,0,158,234.026a18.963,18.963,0,0,0-6.674-4.518,3.873,3.873,0,0,1-.9-.437,3.721,3.721,0,0,1-.822-.984c-.875-1.316-1.942-2.8-3.521-2.716a2.164,2.164,0,0,0-1.671-.114,2.274,2.274,0,0,0-.245.079,15.546,15.546,0,0,0-1.754.914,8.141,8.141,0,0,1-4.723.857,1.6,1.6,0,0,1-.551-.14,2.821,2.821,0,0,1-.507-.411,2.916,2.916,0,0,0-2.9-.464,2.633,2.633,0,0,0-1.155.813c-.289.363-.49.8-.809,1.141-.827.883-2.191.918-3.4.914a31.4,31.4,0,0,0-7.465.687,14.192,14.192,0,0,0-5.878,2.843l0,0c-.236.2-.455.407-.673.625a4.992,4.992,0,0,0-1.163,1.662c-.332.857-.289,1.824-.59,2.694-.332.975-1.071,1.771-1.369,2.751a11.062,11.062,0,0,1-.573,2.239c.018.013.031.026.048.039,1.592,1.4,2.952,3.236,4.548,4.623a9.178,9.178,0,0,1,2.309,2.58,4.26,4.26,0,0,1,.284.7,10.761,10.761,0,0,1,.236,2.545c.2,4.089,2.418,7.8,4.9,11.052.048.066.1.131.149.192Z" transform="translate(-84.399 -167.139)"/><path class="g" d="M112.491,260.8q-.564,3.916-1.137,7.828a34.109,34.109,0,0,1-.778,4.146c-.227.844-.52,1.671-.726,2.515H98.461a10.906,10.906,0,0,1,.109-1.413,23.352,23.352,0,0,1,1.421-4.9q1.988-5.366,3.971-10.741c.564-1.526,1.05-3.123,1.671-4.636.109-.28.227-.56.354-.831.66-1.452,2.493-.857,3.849-.639a3.654,3.654,0,0,1,1.076.306,2.777,2.777,0,0,1,1.01.953c1.286,1.9,1.006,4.417.673,6.691Q112.543,260.444,112.491,260.8Z" transform="translate(-79.328 -178.234)"/><path class="d" d="M175.873,289.2c.018.061.206.713.516,1.631h-9.495c4.706-.809,8.979-1.636,8.979-1.636Z" transform="translate(-107.784 -193.775)"/><ellipse class="d" cx="10.777" cy="5.803" rx="10.777" ry="5.803" transform="translate(44.063 33.246)"/><rect class="a" width="246.658" height="167.063" transform="translate(158.014 63.221)"/><rect class="c" width="73.035" height="79.595" transform="translate(173.758 78.528)"/><path class="d" d="M398.374,304.5a1.072,1.072,0,0,0,1.257-.519c1.01-1.592-.85-3.644-.447-5.485.323-1.475,2-2.351,2.342-3.822.333-1.429-.693-3.04,0-4.333a2.878,2.878,0,0,1,3.037-1.1c1.136.178,2.214.677,3.362.747,1.529.093,2.987-.58,4.482-.913s3.319-.2,4.2,1.051c1.129,1.61-.016,3.853.377,5.78.312,1.53,1.593,2.8,1.621,4.359.01.555-1.449.108-1.372.658s-.612.066-.061,0a1.092,1.092,0,0,0,.83-.987c.066-.458.926-.611.916-1.073-.023-1.084,1.936-.353,2.259-1.388a10.5,10.5,0,0,0-.429-7.321,14.67,14.67,0,0,1-1.25-2.977c-.288-1.437.165-2.98-.31-4.366-.64-1.869-2.757-2.821-4.722-3.014s-3.963.153-5.917-.132c-1.751-.255-3.446-1.014-5.211-.9a8.659,8.659,0,0,0-5.431,3.03,45.619,45.619,0,0,1-4.383,4.609,8.6,8.6,0,0,0-1.405,1.21,4.72,4.72,0,0,0-.7,3.828c.236,1.318.751,2.576.968,3.9.2,1.242.141,2.511.229,3.766a6.62,6.62,0,0,0,1.1,3.555,3.356,3.356,0,0,0,2.611,1.364c.354.008.652-.31,1.009-.227C397.784,303.9,397.978,304.321,398.374,304.5Z" transform="translate(-201.098 -189.43)"/><path class="i" d="M375.913,387.96c.319-4.378.56-7.649.56-7.649l2.064-5.441,6.626,13.09Z" transform="translate(-194.698 -229.399)"/><path class="j" d="M375.913,387.96c.319-4.378.56-7.649.56-7.649l2.064-5.441,6.626,13.09Z" transform="translate(-194.698 -229.399)"/><path class="h" d="M402.2,320.873s6.178,15.726,2.621,18.721,19.845-5.055,19.845-5.055l-.562-2.059s-7.676-3-3.932-11.607S402.2,320.873,402.2,320.873Z" transform="translate(-205.628 -205.354)"/><path class="f" d="M402.2,320.873s6.178,15.726,2.621,18.721,19.845-5.055,19.845-5.055l-.562-2.059s-7.676-3-3.932-11.607S402.2,320.873,402.2,320.873Z" transform="translate(-205.628 -205.354)"/><circle class="h" cx="13.105" cy="13.105" r="13.105" transform="translate(192.263 95.673)"/><path class="i" d="M432.281,352.455l-.144,2.86c-.188,3.7-.525,10.645-.862,18.652h-50.8a25.183,25.183,0,0,1-3.232-5.786,6.241,6.241,0,0,1-.381-1.863c-.28-4.964,4.168-11.891,7.308-12.552,3.556-.752,10.295-7.863,10.295-7.863a1.6,1.6,0,0,0,.857,1.295v0a3.483,3.483,0,0,0,1.762.385c2.2,0,11.852-4.456,14.953-5.913.608-.284.962-.455.962-.455a72.676,72.676,0,0,0,11.047,3.748A11.749,11.749,0,0,1,432.281,352.455Z" transform="translate(-195.088 -215.407)"/><path class="d" d="M394.528,302.26a1.072,1.072,0,0,0,1.257-.519c1.01-1.592-.85-3.644-.447-5.485.323-1.475,2-2.351,2.342-3.822.333-1.429-.693-3.04,0-4.333a2.878,2.878,0,0,1,3.037-1.1c1.136.177,2.214.677,3.362.747,1.529.093,2.987-.58,4.482-.913s3.319-.2,4.2,1.051c1.129,1.61-.016,3.853.377,5.78.312,1.53,3.87,2.6,4.193,1.57a10.494,10.494,0,0,0-.429-7.321,14.662,14.662,0,0,1-1.25-2.977c-.288-1.437.165-2.98-.31-4.366-.64-1.868-2.757-2.821-4.722-3.014s-3.963.153-5.917-.132c-1.751-.255-3.446-1.014-5.211-.9a8.659,8.659,0,0,0-5.431,3.03,45.655,45.655,0,0,1-4.383,4.609,8.6,8.6,0,0,0-1.405,1.21,4.721,4.721,0,0,0-.7,3.829c.237,1.318.751,2.576.968,3.9.2,1.242.141,2.511.229,3.766a6.62,6.62,0,0,0,1.1,3.555,3.355,3.355,0,0,0,2.611,1.364c.354.008.652-.309,1.009-.227C393.938,301.654,394.132,302.078,394.528,302.26Z" transform="translate(-199.499 -188.497)"/><path class="f" d="M470.836,381.964H456.011c-1.128-8.274-2.06-16.925-2.06-16.925l3-1.312,6.088-3.276s.446,1.058,1.163,2.86C465.728,367.165,468.505,374.416,470.836,381.964Z" transform="translate(-227.148 -223.404)"/><path class="i" d="M469.678,380.5H452.946c-2.48-9.053-4.924-18.893-4.924-18.893l6.368-4.68,7.487,2.06S466.259,369.416,469.678,380.5Z" transform="translate(-224.683 -221.938)"/><rect class="i" width="70.411" height="4.811" transform="translate(291.839 78.528)"/><rect class="i" width="24.928" height="4.811" transform="translate(174.632 170.369)"/><rect class="i" width="71.286" height="4.811" transform="translate(174.632 179.115)"/><rect class="c" width="101.462" height="4.811" transform="translate(275.22 96.021)"/><rect class="c" width="101.462" height="4.811" transform="translate(275.22 109.579)"/><rect class="c" width="101.462" height="4.811" transform="translate(275.22 123.136)"/><rect class="c" width="101.462" height="4.811" transform="translate(275.22 136.694)"/><rect class="c" width="101.462" height="4.811" transform="translate(275.22 150.251)"/><rect class="c" width="101.462" height="4.811" transform="translate(275.22 163.809)"/><rect class="c" width="101.462" height="4.811" transform="translate(275.22 177.366)"/><path class="f" d="M955.713,676.369c0,31.273-43.591,21.6-96.964,21.6s-96.315,9.673-96.315-21.6,43.585-38.075,96.958-38.075S955.713,645.1,955.713,676.369Z" transform="translate(-355.423 -338.937)"/><path class="a" d="M955.713,666.369c0,31.273-43.591,21.6-96.964,21.6s-96.315,9.673-96.315-21.6,43.585-38.075,96.958-38.075S955.713,635.1,955.713,666.369Z" transform="translate(-355.423 -334.779)"/><path class="k" d="M763.535,525.762l-1.975,2.293s-24.016,2.255-23.042,6.154,28.916-5.2,28.916-5.2Z" transform="translate(-345.466 -292.143)"/><path class="i" d="M827.674,522.425s-25.667,9.1-39.637,5.2l6.5,13s33.139-.975,38.987-6.823S827.674,522.425,827.674,522.425Z" transform="translate(-366.069 -290.756)"/><path class="j" d="M827.674,522.425s-25.667,9.1-39.637,5.2l6.5,13s33.139-.975,38.987-6.823S827.674,522.425,827.674,522.425Z" transform="translate(-370.069 -286.756)"/><circle class="k" cx="17.219" cy="17.219" r="17.219" transform="translate(427.004 127.54)"/><path class="k" d="M832.328,395.725a13.442,13.442,0,0,0,2.231,3.092,28.168,28.168,0,0,0,8.3,6.211,282.813,282.813,0,0,1-29.574,4.4c1.048-3.691-.332-7.64-2.186-11s-4.218-6.491-5.379-10.149l11.639.313c2.112.057,4.23.12,6.342.017,1.578-.077,4.207-1.023,5.68-.674C832.5,388.668,830.969,392.963,832.328,395.725Z" transform="translate(-373.422 -234.799)"/><path class="d" d="M828.445,536.2l9.747,11.7s16.244,38.013-19.169,41.911-61.73-2.924-61.73-2.924-14.3-6.823-14.62-1.624-1.625,19.819-9.422,34.114l-6.823,15.595s-3.574,3.574-2.6,8.447-21.768,6.5-21.443,0c0,0,3.249-5.523,3.249-8.772s5.2-11.047,5.2-11.047l9.422-46.785s-.65-24.042,21.443-19.494,53.608-.975,53.608-.975l7.148-25.017Z" transform="translate(-330.452 -294.456)"/><path class="f" d="M828.445,536.2l9.747,11.7s16.244,38.013-19.169,41.911-61.73-2.924-61.73-2.924-14.3-6.823-14.62-1.624-1.625,19.819-9.422,34.114l-6.823,15.595s-3.574,3.574-2.6,8.447-21.768,6.5-21.443,0c0,0,3.249-5.523,3.249-8.772s5.2-11.047,5.2-11.047l9.422-46.785s-.65-24.042,21.443-19.494,53.608-.975,53.608-.975l7.148-25.017Z" transform="translate(-330.452 -294.456)"/><path class="d" d="M770.538,536.332s29.728-11.165,46.3,12.552c0,0,4.224,36.713-12.671,38.338s-38.987,1.3-44.186-4.224-38.013-21.118-38.013-21.118-16.335-8.332-19.539,2.494S698.9,577.8,698.9,577.8,682,590.146,675.181,592.42c0,0-4.549,6.5-7.148,6.5s-18.519,3.574-16.895-8.447l26.316-24.042,26.317-25.667s7.473-11.046,26.641-5.2a396.391,396.391,0,0,0,38.663,9.422Z" transform="translate(-309.095 -295.447)"/><path class="l" d="M704.449,721.4s6.173,15.6.975,17.544-16.245.65-16.245.65-13-1.624-16.245-1.3-16.57-2.274-14.62-7.473,12.021-3.9,12.021-3.9l9.1-4.224s.975-3.249,3.249-1.949S691.453,726.928,704.449,721.4Z" transform="translate(-312.046 -373.098)"/><path class="l" d="M652.742,638.023s6.823,15.27-4.224,13.97-19.494-3.574-22.743-3.9c-3.125-.312-11.962-3.331-10.607-9.343a5.354,5.354,0,0,0,.088-1.18c0-.807,1.1-2.391,9.869-2.147,0,0,6.5,0,9.1-4.549C634.222,630.876,643.969,643.222,652.742,638.023Z" transform="translate(-294.128 -335.852)"/><path class="i" d="M805.834,416.023s23.392-14.62,42.886,0,32.49,81.224,32.49,81.224l-45.161-10.072s-1.949-7.8-4.548-9.1-2.924-6.823-2.924-6.823-13.97-4.224-13-20.468S805.834,416.023,805.834,416.023Z" transform="translate(-373.469 -243.809)"/><path class="i" d="M805.877,421.76H793.856s-7.148,8.122-8.122,28.591l-3.9,16.245s-8.122,19.494-3.249,22.743,14.3,2.924,16.245-3.574,15.27-44.186,15.27-44.186Z" transform="translate(-361.491 -248.897)"/><path class="d" d="M797.811,334.364a17.406,17.406,0,0,1,18.005,2.952c6.24,5.568,7.5,14.652,9.076,22.865s4.751,17.359,12.491,20.525A32.546,32.546,0,0,1,826.9,380.4l11.7,10.483-19.7-6.423c-6.184-2.016-12.679-4.057-19.083-2.918-10.609,1.886-18,11.859-28.185,15.363l1.132-5.526-6.836-.052a13.39,13.39,0,0,0,3.917-4.589,3.791,3.791,0,0,0-2.615-1.368c-2.85-17.776,7.706-35.347,21.462-46.96,2.706-2.284,5.7-4.478,9.194-5.05s7.574.991,8.79,4.317" transform="translate(-356.871 -212.015)"/><path class="a" d="M310.2,614.159c0,37.4,23.461,67.658,52.454,67.658" transform="translate(-167.372 -328.901)"/><path class="i" d="M399.987,681.277c0-37.817,26.181-68.418,58.535-68.418" transform="translate(-204.709 -328.36)"/><path class="i" d="M342.729,619.963c0,35.523,14.96,64.268,33.449,64.268" transform="translate(-180.9 -331.314)"/><path class="a" d="M399.987,667.749c0-48.322,30.261-87.423,67.658-87.423" transform="translate(-204.709 -314.832)"/><path class="m" d="M381.1,727.932s7.439-.229,9.681-1.826,11.443-3.5,12-.942,11.179,12.734,2.781,12.8-19.514-1.308-21.752-2.671S381.1,727.932,381.1,727.932Z" transform="translate(-196.854 -374.539)"/><path class="n" d="M405.707,739.929c-8.4.068-19.514-1.308-21.752-2.671-1.7-1.038-2.383-4.762-2.61-6.481l-.248.01s.471,6,2.709,7.362,13.353,2.739,21.752,2.671c2.424-.02,3.262-.882,3.216-2.16C408.436,739.432,407.512,739.914,405.707,739.929Z" transform="translate(-196.854 -377.393)"/></g></svg>