<svg xmlns="http://www.w3.org/2000/svg" width="697.751" height="423.316" viewBox="0 0 697.751 423.316"><defs><style>.a{fill:#2d2d2d;}.b,.i{fill:#3f3d56;}.b{opacity:0.3;}.c{fill:#f2f2f2;}.d{fill:#2f2e41;}.e{fill:#ffb9b9;}.f,.k{opacity:0.1;}.g{fill:#d0cde1;}.h{fill:#a0616a;}.j,.k{fill:#face48;}.l{fill:#ffc1c7;}.m{fill:#cbceda;}.n{fill:#a8a8a8;}.o{opacity:0.2;}</style></defs><g transform="translate(0 0)"><ellipse class="a" cx="254.005" cy="22.854" rx="254.005" ry="22.854" transform="translate(189.742 377.608)"/><rect class="b" width="275.703" height="186.735" transform="translate(595.295 186.736) rotate(180)"/><rect class="c" width="81.635" height="88.968" transform="translate(496.062 17.109)"/><rect class="c" width="78.702" height="5.377" transform="translate(445.712 22.486) rotate(180)"/><rect class="c" width="27.864" height="5.377" transform="translate(523.925 125.142) rotate(180)"/><rect class="c" width="79.68" height="5.377" transform="translate(576.72 134.919) rotate(180)"/><rect class="c" width="113.41" height="5.377" transform="translate(464.287 42.04) rotate(180)"/><rect class="c" width="113.41" height="5.377" transform="translate(464.287 57.194) rotate(180)"/><rect class="c" width="113.41" height="5.377" transform="translate(464.287 72.348) rotate(180)"/><rect class="c" width="113.41" height="5.377" transform="translate(464.287 87.502) rotate(180)"/><rect class="c" width="113.41" height="5.377" transform="translate(464.287 102.656) rotate(180)"/><rect class="c" width="113.41" height="5.377" transform="translate(464.287 117.809) rotate(180)"/><rect class="c" width="113.41" height="5.377" transform="translate(464.287 132.964) rotate(180)"/><path class="d" d="M843.105,225.489a14.439,14.439,0,0,1,3.953-1.982,100.793,100.793,0,0,1,27.852-6.063c8.282-.587,17.257.11,23.726,5.315a8.16,8.16,0,0,1,2.407,2.8c.814,1.756.567,3.8.3,5.715a6.462,6.462,0,0,1-.554,2.151c-.87,1.657-3.013,2.238-4.875,2.039s-3.608-.986-5.444-1.352a24.337,24.337,0,0,0-3.438-.35l-11.515-.623c-7.16-.388-14.415-.769-21.439.676a21.363,21.363,0,0,0-6.195,2.134c-1.6.9-2.684,2.193-4.173.53C841.1,233.561,839.65,228.189,843.105,225.489Z" transform="translate(-334.783 -157.577)"/><path class="c" d="M869.811,236.172s15.488-6.943,21.363,1.068-3.2,4.807-3.2,4.807l-10.148,3.2-11.216-2.136Z" transform="translate(-343.645 -163.168)"/><path class="e" d="M872.741,227.33s2.137,10.148.534,12.818,9.08,6.409,9.08,6.409l10.147-4.273s-2.67-16.557,0-19.761Z" transform="translate(-345.774 -159.4)"/><path class="f" d="M872.741,227.33s2.137,10.148.534,12.818,9.08,6.409,9.08,6.409l10.147-4.273s-2.67-16.557,0-19.761Z" transform="translate(-345.774 -159.4)"/><path class="e" d="M893.335,205.829a16.035,16.035,0,0,1-16.022,16.023,15.649,15.649,0,0,1-2.847-.256,16.022,16.022,0,1,1,18.869-15.766Z" transform="translate(-341.801 -148.046)"/><path class="c" d="M898.025,271.077h-51.1l1.159-5.03,5.015-21.856,5.8-3.916,0-.005,2.723-1.843,1.355-.914s.8.367,1.725.865c.269.151.542.308.816.474.005,0,.005,0,.005,0a9.59,9.59,0,0,1,1.261.875c.074.069.137.127.2.191,1.017,1.017,3.984,6.414,8.892,3.652a7.392,7.392,0,0,0,.719-.45,35.481,35.481,0,0,0,3.652-2.9c1.032-.943,1.7-1.672,2.249-2.175a3.559,3.559,0,0,1,.831-.616,1.582,1.582,0,0,1,.748-.181c1.6,0,3.74,3.2,3.74,3.2l.063.186,0,.015,6.741,20.238Z" transform="translate(-336.816 -164.51)"/><path class="d" d="M841.863,269.292h15.486a37.746,37.746,0,0,0-.279-5.358c-.474-3.573-1.638-7.015-2.371-10.544a44.372,44.372,0,0,1-.934-9.405c.005-.435.015-.875.054-1.315a6.015,6.015,0,0,1,.846-2.855c.367-.562.87-1.041,1.261-1.579a3.686,3.686,0,0,0,.357-.562v0q.073-.146.132-.3a2.416,2.416,0,0,0,.146-.728c.088-1.613-1.374-3.168-2.953-3.832a11.038,11.038,0,0,0-6.917-.279,32.933,32.933,0,0,0-6.5,2.659c-.7.342-1.393.694-2.063,1.085a10.245,10.245,0,0,0-2.185,1.662c-1.662,1.716-2.39,4.106-2.977,6.418a13.57,13.57,0,0,0-.562,5.475c.005.059.02.122.029.181.582,3.045,3.065,5.333,4.39,8.139,1.535,3.256,1.432,7.049.821,10.6-.029.181-.064.362-.1.543h4.317Z" transform="translate(-331.752 -162.725)"/><path class="d" d="M927.69,247.77a121.109,121.109,0,0,0-4.219,19.558H901.4q-.865-2.361-1.726-4.727a35.617,35.617,0,0,1-1.178-3.637,17.388,17.388,0,0,1-.493-4.38c0-.352.014-.709.044-1.061a.016.016,0,0,0,0-.02,17.494,17.494,0,0,1,1.276-5.411,20.2,20.2,0,0,1,1.124-2.283c1.027-1.858,2.269-3.608,3.373-5.426a24.865,24.865,0,0,0,1.794-3.48.019.019,0,0,1,0-.015,12.5,12.5,0,0,0,1.012-4.864c-.034-2.156-3.681-5.915.283-5.553,5.411.489,10.06,3.6,14.3,7.152,1.129.948,2.234,1.931,3.314,2.9,1.672,1.506,3.436,3.148,3.94,5.343a5.679,5.679,0,0,1,.142,1.066A14.632,14.632,0,0,1,927.69,247.77Z" transform="translate(-354.539 -160.762)"/><path class="e" d="M883.15,246.466a11.939,11.939,0,0,0-2.507-4.041,9.3,9.3,0,0,0-3.829-1.94,20.939,20.939,0,0,0-5.616-.8c-2.262-.014-4.884.593-5.845,2.64-.763,1.626-.171,3.552.6,5.176a5.074,5.074,0,0,0,1.583,2.139,8.791,8.791,0,0,0,3.394.859,15.652,15.652,0,0,1,5.015,2.273l3.961,2.395,6.8,4.113c-.179-.108-.116-4.775-.325-5.54C885.71,251.271,884.195,248.8,883.15,246.466Z" transform="translate(-343.087 -165.354)"/><path class="d" d="M890.172,193.049a4.069,4.069,0,0,0-1.764-2.3,9.325,9.325,0,0,0-.372-3.038c-.97-2.869-3.269-2.7-5.438-3.973-.941-.55-.883-1.037-1.373-1.94a7.2,7.2,0,0,0-2.775-2.831,9.982,9.982,0,0,0-4.506-1.912c-3.459-.236-6.111,3.018-9.417,4.062-1.457.46-3.023.479-4.489.914s-2.927,1.474-3.145,2.987c-.1.7.077,1.415-.025,2.113-.2,1.388-1.421,2.359-2.235,3.5-1.8,2.524-1.6,6.089-.155,8.835a12.469,12.469,0,0,0,1.039,1.626,10,10,0,0,0,1.1,3.715,18.515,18.515,0,0,0,6.511,6.5,15.447,15.447,0,0,1-.384-2.773,1.909,1.909,0,0,1,.118-.919c.288-.6,1.051-.763,1.632-1.094a4.125,4.125,0,0,0,1.711-3.582c.035-1.384-.259-2.771-.113-4.148a2.267,2.267,0,0,1,.776-1.667,2.679,2.679,0,0,1,1.463-.349c2.466-.1,5.044-.146,7.219-1.312a10.7,10.7,0,0,1,2.247-1.137c1.849-.482,3.739.814,4.8,2.4s1.6,3.474,2.58,5.112,2.682,3.1,4.582,2.905a.759.759,0,0,0,.567-.252.85.85,0,0,0,.1-.484l.106-7.266A10.985,10.985,0,0,0,890.172,193.049Z" transform="translate(-339.041 -143.616)"/><path class="d" d="M838.224,266.7q.521,4.289.631,8.608H825.411v-11.3c.069-.274.142-.543.23-.811.841-2.591,2.605-4.761,4.136-7.015.074-.112.151-.225.225-.337a18.339,18.339,0,0,0,1.672-3.016c.22-.518.572-3.026.943-3.241,1.594-.924,2.889,3.026,3.109,3.906.782,3.133,1.462,6.3,1.975,9.488Q838,264.845,838.224,266.7Z" transform="translate(-329.349 -168.747)"/><path class="d" d="M927.826,273.713h-30.86c-.264-.621-.523-1.242-.8-1.858a54.287,54.287,0,0,0-7.4-12.138,3.213,3.213,0,0,1-.914-1.814,1.531,1.531,0,0,1,.2-.816c.469-.875,1.711-1.388,2.718-1.8A9.367,9.367,0,0,0,893.6,253.5a6.067,6.067,0,0,0,1.633-2.41,5.341,5.341,0,0,0,.205-.831l.43.562c.347.459.7.914,1.056,1.369,3.422,4.395,7.181,8.726,11.908,11.331a20.053,20.053,0,0,0,3.891,1.657,1.021,1.021,0,0,0,.821,0,.992.992,0,0,0,.357-.655c.421-1.76.567-3.573.875-5.358A30.52,30.52,0,0,1,918,249.892c.875-1.628,3.72-7.577,5.524-3.828q.777,1.62,1.564,3.251c.328.689.66,1.374.992,2.063a12.828,12.828,0,0,1,1.608,7.186Q927.758,266.146,927.826,273.713Z" transform="translate(-351.019 -167.147)"/><path class="f" d="M844.809,282.529h2.674l-1.516-5.03-2.185-7.249a23.636,23.636,0,0,1-.21,3.671,24.451,24.451,0,0,1-2.131,7.254c-.21.445-.435.895-.616,1.354Z" transform="translate(-334.699 -175.962)"/><path class="f" d="M929.035,265.38a5.222,5.222,0,0,0,.256,3.173,31.969,31.969,0,0,1,1.165,9.277.338.338,0,0,1-.395.4c-1.233.076-2.645.084-3.481-.825Z" transform="translate(-364.459 -174.273)"/><rect class="b" width="275.703" height="186.735" transform="translate(0 1.922)"/><rect class="c" width="81.635" height="88.968" transform="translate(17.598 19.031)"/><rect class="c" width="78.702" height="5.377" transform="translate(149.584 19.031)"/><rect class="c" width="27.864" height="5.377" transform="translate(18.576 121.687)"/><rect class="c" width="79.68" height="5.377" transform="translate(18.576 131.464)"/><rect class="c" width="113.41" height="5.377" transform="translate(131.008 38.585)"/><rect class="c" width="113.41" height="5.377" transform="translate(131.008 53.739)"/><rect class="c" width="113.41" height="5.377" transform="translate(131.008 68.893)"/><rect class="c" width="113.41" height="5.377" transform="translate(131.008 84.046)"/><rect class="c" width="113.41" height="5.377" transform="translate(131.008 99.2)"/><rect class="c" width="113.41" height="5.377" transform="translate(131.008 114.354)"/><rect class="c" width="113.41" height="5.377" transform="translate(131.008 129.509)"/><path class="g" d="M204.3,275.583H193.686q-1.225-3.292-2.175-6.668a13.319,13.319,0,0,0-3.461-7.054,13.081,13.081,0,0,1-1.491-2.024,9.5,9.5,0,0,1-.939-5.763,14.955,14.955,0,0,1,.274-1.633c.464-2.087,1.241-4.091,1.892-6.125a2.323,2.323,0,0,1,1.9-1.569,3.761,3.761,0,0,1,2.073.24,2.573,2.573,0,0,1,.416.215,6.415,6.415,0,0,1,2.244,3.431q3.322,8.917,6.638,17.833.645,1.73,1.291,3.471c.635,1.7,1.266,3.4,1.8,5.138C204.2,275.246,204.25,275.411,204.3,275.583Z" transform="translate(-107.284 -167.095)"/><path class="d" d="M136.405,171.413c-2.639.891-5.029,2.975-5.569,5.708-.251,1.266-.1,2.583-.308,3.857-.489,2.954-2.808,5.21-4.946,7.305s-4.347,4.53-4.5,7.52c-.171,3.274,2.2,6.342,1.793,9.594-.477,3.779-4.469,6.228-5.456,9.907a9.531,9.531,0,0,0,1.477,7.272c2.531,4.133,6.858,6.94,11.465,8.444a47.764,47.764,0,0,0,14.361,1.872c5.9.062,12.309-.445,16.743-4.34a13.412,13.412,0,0,0,4.453-8.732c.421-4.512-1.462-9.173-.163-13.514.817-2.732,2.867-5.227,2.561-8.062-.3-2.772-2.72-4.737-4.381-6.977a28.352,28.352,0,0,1-3.414-6.995l-3.156-8.33a9.668,9.668,0,0,0-2.684-4.434c-2.588-2.012-6.75-1.617-9.776-1.2C142.095,170.692,139.105,170.5,136.405,171.413Z" transform="translate(-83.571 -141.163)"/><path class="h" d="M149.968,213.249s.309,9.266-.618,10.193,3.706,7.1,3.706,7.1l8.34-.309,4.324-3.4-3.706-4.942s-1.544-8.031-.309-9.884S149.968,213.249,149.968,213.249Z" transform="translate(-94.692 -155.547)"/><path class="f" d="M149.968,213.249s.309,9.266-.618,10.193,3.706,7.1,3.706,7.1l8.34-.309,4.324-3.4-3.706-4.942s-1.544-8.031-.309-9.884S149.968,213.249,149.968,213.249Z" transform="translate(-94.692 -155.547)"/><circle class="h" cx="11.12" cy="11.12" r="11.12" transform="translate(49.252 39.015)"/><path class="g" d="M147.378,268.8h9.014c.337-.611.655-1.246,1.022-1.823v0a4.99,4.99,0,0,1,1.643-1.721,6.475,6.475,0,0,0,1.217-.728,3.141,3.141,0,0,0,.743-1.388,21.514,21.514,0,0,0,1.017-5.993c.015-.684,0-1.379.039-2.063a8.668,8.668,0,0,1,.205-1.589,12.515,12.515,0,0,1,1.335-3.021q1.833-3.336,3.676-6.672a4.663,4.663,0,0,0,.249-1.955,4.82,4.82,0,0,0-.792-2.508c-.171-.308-.357-.616-.552-.914a20.3,20.3,0,0,0-2.62-3.344,21.194,21.194,0,0,0-7.46-5.05,4.333,4.333,0,0,1-1-.489,4.157,4.157,0,0,1-.919-1.1c-.978-1.471-2.17-3.128-3.935-3.036a2.419,2.419,0,0,0-1.867-.127,2.541,2.541,0,0,0-.274.088,17.371,17.371,0,0,0-1.96,1.022,9.1,9.1,0,0,1-5.279.958,1.789,1.789,0,0,1-.616-.156,3.155,3.155,0,0,1-.567-.459,3.259,3.259,0,0,0-3.241-.518,2.944,2.944,0,0,0-1.29.909c-.323.406-.548.895-.9,1.276-.924.987-2.449,1.027-3.8,1.022a35.1,35.1,0,0,0-8.344.768,15.862,15.862,0,0,0-6.57,3.177l0,0c-.264.225-.508.455-.753.7a5.58,5.58,0,0,0-1.3,1.858c-.372.958-.323,2.039-.66,3.011-.372,1.09-1.2,1.98-1.53,3.075a12.368,12.368,0,0,1-.64,2.5c.02.015.034.029.054.044,1.779,1.564,3.3,3.617,5.084,5.167a10.26,10.26,0,0,1,2.581,2.884,4.762,4.762,0,0,1,.318.782,12.027,12.027,0,0,1,.264,2.845c.225,4.571,2.7,8.716,5.475,12.353.054.073.108.147.166.215Z" transform="translate(-81.307 -160.309)"/><path class="g" d="M114.143,261.862q-.631,4.378-1.271,8.75a38.133,38.133,0,0,1-.87,4.634c-.254.943-.582,1.867-.811,2.811H98.461a12.2,12.2,0,0,1,.122-1.579,26.106,26.106,0,0,1,1.589-5.48q2.222-6,4.439-12.006c.631-1.706,1.173-3.49,1.867-5.182.122-.313.254-.626.4-.929.738-1.623,2.786-.958,4.3-.714a4.081,4.081,0,0,1,1.2.342,3.1,3.1,0,0,1,1.129,1.066c1.437,2.126,1.124,4.937.753,7.479Q114.2,261.459,114.143,261.862Z" transform="translate(-77.075 -169.568)"/><path class="d" d="M176.93,289.2c.02.068.23.8.577,1.823H166.894c5.26-.9,10.036-1.828,10.036-1.828Z" transform="translate(-100.823 -182.539)"/><ellipse class="d" cx="12.046" cy="6.486" rx="12.046" ry="6.486" transform="translate(49.252 37.161)"/><rect class="i" width="275.703" height="186.735" transform="translate(176.621 70.666)"/><rect class="c" width="81.635" height="88.968" transform="translate(194.219 87.775)"/><path class="d" d="M399.206,307.535a1.2,1.2,0,0,0,1.4-.58c1.129-1.779-.95-4.073-.5-6.131.361-1.649,2.234-2.628,2.618-4.272.372-1.6-.775-3.4,0-4.843.608-1.132,2.125-1.431,3.395-1.232s2.475.757,3.757.835c1.709.1,3.338-.648,5.01-1.021s3.71-.227,4.693,1.175c1.263,1.8-.018,4.307.422,6.461.349,1.711,1.781,3.127,1.812,4.873.011.621-1.62.12-1.533.735s-.684.073-.068,0a1.221,1.221,0,0,0,.927-1.1c.073-.512,1.035-.682,1.024-1.2-.026-1.211,2.164-.395,2.525-1.551a11.731,11.731,0,0,0-.479-8.183,16.4,16.4,0,0,1-1.4-3.328c-.322-1.606.185-3.33-.346-4.88-.715-2.088-3.081-3.153-5.278-3.369s-4.429.171-6.614-.148c-1.957-.285-3.851-1.134-5.825-1.011-2.369.147-4.429,1.673-6.071,3.387s-3.034,3.684-4.9,5.152a9.609,9.609,0,0,0-1.571,1.352,5.276,5.276,0,0,0-.782,4.279c.264,1.474.839,2.879,1.082,4.356.228,1.388.158,2.807.256,4.21A7.4,7.4,0,0,0,394,305.472,3.751,3.751,0,0,0,396.921,307c.4.009.729-.346,1.128-.253C398.547,306.859,398.764,307.333,399.206,307.535Z" transform="translate(-178.7 -178.912)"/><path class="j" d="M375.913,389.5c.357-4.893.626-8.55.626-8.55l2.307-6.081,7.406,14.631Z" transform="translate(-173.359 -212.269)"/><path class="k" d="M375.913,389.5c.357-4.893.626-8.55.626-8.55l2.307-6.081,7.406,14.631Z" transform="translate(-173.359 -212.269)"/><path class="h" d="M402.2,321.323s6.905,17.578,2.93,20.926,22.181-5.65,22.181-5.65l-.628-2.3s-8.58-3.348-4.395-12.974S402.2,321.323,402.2,321.323Z" transform="translate(-182.481 -192.202)"/><path class="f" d="M402.2,321.323s6.905,17.578,2.93,20.926,22.181-5.65,22.181-5.65l-.628-2.3s-8.58-3.348-4.395-12.974S402.2,321.323,402.2,321.323Z" transform="translate(-182.481 -192.202)"/><circle class="h" cx="14.648" cy="14.648" r="14.648" transform="translate(214.903 106.939)"/><path class="j" d="M438.809,353.778l-.161,3.2c-.21,4.14-.587,11.9-.963,20.849H380.9a28.142,28.142,0,0,1-3.612-6.467,6.967,6.967,0,0,1-.425-2.083c-.313-5.548,4.659-13.291,8.168-14.03,3.974-.841,11.507-8.789,11.507-8.789a1.793,1.793,0,0,0,.958,1.447v0a3.894,3.894,0,0,0,1.97.43c2.454,0,13.247-4.981,16.713-6.609.68-.318,1.076-.508,1.076-.508a81.227,81.227,0,0,0,12.348,4.189A13.133,13.133,0,0,1,438.809,353.778Z" transform="translate(-173.684 -200.591)"/><path class="d" d="M395.36,305.292a1.2,1.2,0,0,0,1.4-.581c1.129-1.779-.95-4.073-.5-6.131.361-1.649,2.235-2.628,2.618-4.272.372-1.6-.775-3.4,0-4.844.607-1.132,2.125-1.43,3.395-1.232s2.475.757,3.757.835c1.709.1,3.338-.648,5.01-1.021s3.71-.227,4.693,1.175c1.263,1.8-.018,4.307.421,6.461.349,1.711,4.326,2.911,4.687,1.754a11.73,11.73,0,0,0-.479-8.183,16.382,16.382,0,0,1-1.4-3.328c-.322-1.606.185-3.33-.346-4.88-.715-2.088-3.082-3.153-5.279-3.369s-4.429.171-6.614-.148c-1.957-.286-3.851-1.134-5.825-1.011-2.368.148-4.429,1.673-6.071,3.387s-3.034,3.684-4.9,5.152a9.616,9.616,0,0,0-1.571,1.352,5.276,5.276,0,0,0-.782,4.28c.264,1.474.839,2.879,1.082,4.356.228,1.388.158,2.807.256,4.21a7.4,7.4,0,0,0,1.235,3.974,3.75,3.75,0,0,0,2.919,1.525c.4.009.729-.346,1.128-.253C394.7,304.616,394.918,305.089,395.36,305.292Z" transform="translate(-177.365 -178.134)"/><path class="f" d="M472.824,384.5H456.253c-1.261-9.249-2.3-18.918-2.3-18.918l3.349-1.467,6.8-3.661s.5,1.183,1.3,3.2C467.115,367.955,470.219,376.06,472.824,384.5Z" transform="translate(-200.441 -207.265)"/><path class="j" d="M472.229,383.274h-18.7c-2.772-10.119-5.5-21.118-5.5-21.118l7.118-5.231,8.369,2.3S468.406,370.887,472.229,383.274Z" transform="translate(-198.383 -206.042)"/><rect class="j" width="78.702" height="5.377" transform="translate(326.205 87.775)"/><rect class="j" width="27.864" height="5.377" transform="translate(195.196 190.43)"/><rect class="j" width="79.68" height="5.377" transform="translate(195.196 200.207)"/><rect class="c" width="113.41" height="5.377" transform="translate(307.629 107.329)"/><rect class="c" width="113.41" height="5.377" transform="translate(307.629 122.483)"/><rect class="c" width="113.41" height="5.377" transform="translate(307.629 137.636)"/><rect class="c" width="113.41" height="5.377" transform="translate(307.629 152.79)"/><rect class="c" width="113.41" height="5.377" transform="translate(307.629 167.944)"/><rect class="c" width="113.41" height="5.377" transform="translate(307.629 183.098)"/><rect class="c" width="113.41" height="5.377" transform="translate(307.629 198.252)"/><path class="f" d="M978.473,680.853c0,34.956-48.724,24.144-108.382,24.144s-107.657,10.813-107.657-24.144,48.717-42.558,108.375-42.558S978.473,645.9,978.473,680.853Z" transform="translate(-307.495 -303.686)"/><path class="a" d="M978.473,670.853c0,34.955-48.724,24.143-108.382,24.143s-107.657,10.813-107.657-24.143,48.717-42.558,108.375-42.558S978.473,635.9,978.473,670.853Z" transform="translate(-307.495 -308.216)"/><path class="l" d="M766.485,525.762l-2.208,2.563s-26.845,2.52-25.755,6.879,32.321-5.811,32.321-5.811Z" transform="translate(-299.185 -264.633)"/><path class="j" d="M832.341,522.425s-28.689,10.168-44.3,5.811l7.263,14.526s37.041-1.089,43.578-7.626S832.341,522.425,832.341,522.425Z" transform="translate(-316.379 -271.475)"/><path class="k" d="M832.341,522.425s-28.689,10.168-44.3,5.811l7.263,14.526s37.041-1.089,43.578-7.626S832.341,522.425,832.341,522.425Z" transform="translate(-320.85 -267.004)"/><circle class="l" cx="19.247" cy="19.247" r="19.247" transform="translate(477.286 142.559)"/><path class="l" d="M835.461,396.651a15.035,15.035,0,0,0,2.494,3.457,31.482,31.482,0,0,0,9.277,6.942,316.016,316.016,0,0,1-33.056,4.915c1.172-4.126-.371-8.539-2.443-12.294s-4.715-7.255-6.012-11.344l13.009.35c2.36.064,4.728.134,7.088.019,1.764-.087,4.7-1.143,6.349-.754C835.649,388.764,833.942,393.564,835.461,396.651Z" transform="translate(-322.516 -216.776)"/><path class="d" d="M843.29,536.771l10.895,13.074s18.157,42.489-21.427,46.847-69-3.269-69-3.269-15.979-7.626-16.342-1.816-1.816,22.153-10.532,38.131l-7.626,17.432s-3.995,3.995-2.906,9.442-24.331,7.263-23.968,0c0,0,3.632-6.174,3.632-9.805s5.81-12.347,5.81-12.347l10.531-52.294s-.726-26.873,23.968-21.789,59.92-1.089,59.92-1.089l7.99-27.963Z" transform="translate(-286.655 -276.09)"/><path class="f" d="M843.29,536.771l10.895,13.074s18.157,42.489-21.427,46.847-69-3.269-69-3.269-15.979-7.626-16.342-1.816-1.816,22.153-10.532,38.131l-7.626,17.432s-3.995,3.995-2.906,9.442-24.331,7.263-23.968,0c0,0,3.632-6.174,3.632-9.805s5.81-12.347,5.81-12.347l10.531-52.294,8.658-19.853s8.247-3.39,15.31-1.936c24.694,5.084,59.92-1.089,59.92-1.089l7.99-27.963Z" transform="translate(-286.655 -276.09)"/><path class="d" d="M784.612,536.641s33.228-12.48,51.749,14.03c0,0,4.721,41.036-14.163,42.852s-43.578,1.453-49.389-4.721-42.489-23.6-42.489-23.6-18.258-9.313-21.839,2.788-3.945,15.007-3.945,15.007-18.884,13.8-26.51,16.342c0,0-5.084,7.263-7.99,7.263s-20.7,3.995-18.884-9.442l29.415-26.873,29.415-28.689s8.353-12.347,29.779-5.81a443.157,443.157,0,0,0,43.215,10.531Z" transform="translate(-268.831 -275.39)"/><path class="m" d="M709.9,721.517s6.9,17.432,1.089,19.61-18.158.726-18.158.726-14.526-1.816-18.158-1.453-18.521-2.542-16.342-8.352,13.437-4.358,13.437-4.358l10.168-4.721s1.09-3.632,3.632-2.179S695.378,727.691,709.9,721.517Z" transform="translate(-271.294 -340.196)"/><path class="m" d="M657.182,638.865s7.626,17.068-4.721,15.615-21.789-3.995-25.421-4.358c-3.493-.35-13.371-3.723-11.856-10.444a5.981,5.981,0,0,0,.1-1.319c0-.9,1.226-2.672,11.031-2.4,0,0,7.263,0,10.168-5.084C636.483,630.876,647.377,644.676,657.182,638.865Z" transform="translate(-256.34 -309.111)"/><path class="j" d="M805.834,416.788s26.147-16.342,47.936,0,36.315,90.788,36.315,90.788l-50.478-11.258s-2.179-8.716-5.084-10.168-3.269-7.626-3.269-7.626-15.615-4.721-14.526-22.879S805.834,416.788,805.834,416.788Z" transform="translate(-322.556 -232.296)"/><path class="j" d="M809.274,421.76H795.838s-7.99,9.079-9.079,31.958L782.4,471.875s-9.079,21.789-3.631,25.421,15.979,3.268,18.158-3.995S814,443.913,814,443.913Z" transform="translate(-312.559 -236.541)"/><path class="d" d="M801.567,334.518a19.456,19.456,0,0,1,20.125,3.3c6.974,6.224,8.381,16.378,10.145,25.558s5.31,19.4,13.962,22.942a36.382,36.382,0,0,1-11.721-.341l13.075,11.717-22.025-7.179c-6.912-2.253-14.172-4.535-21.33-3.262-11.859,2.108-20.114,13.256-31.5,17.172l1.266-6.176-7.642-.059a14.967,14.967,0,0,0,4.378-5.13,4.237,4.237,0,0,0-2.923-1.529c-3.186-19.869,8.613-39.509,23.988-52.49,3.025-2.553,6.371-5.006,10.277-5.644s8.466,1.108,9.825,4.825" transform="translate(-308.703 -205.761)"/><path class="i" d="M310.2,614.159c0,41.8,26.223,75.625,58.631,75.625" transform="translate(-150.553 -295.31)"/><path class="j" d="M399.987,689.333c0-42.27,29.264-76.474,65.428-76.474" transform="translate(-181.714 -294.859)"/><path class="j" d="M342.729,619.963c0,39.706,16.722,71.836,37.388,71.836" transform="translate(-161.843 -297.324)"/><path class="i" d="M399.987,678.043c0-54.012,33.825-97.717,75.625-97.717" transform="translate(-181.714 -283.569)"/><path class="n" d="M381.1,728.405s8.315-.256,10.821-2.04,12.79-3.915,13.412-1.053,12.5,14.233,3.108,14.309-21.812-1.463-24.313-2.986S381.1,728.405,381.1,728.405Z" transform="translate(-175.158 -333.398)"/><path class="o" d="M408.605,741.006c-9.387.076-21.812-1.462-24.313-2.986-1.9-1.16-2.664-5.323-2.918-7.244-.176.008-.278.011-.278.011s.527,6.706,3.028,8.229,14.926,3.062,24.313,2.986c2.71-.022,3.646-.986,3.594-2.415C411.656,740.452,410.622,740.99,408.605,741.006Z" transform="translate(-175.158 -335.78)"/></g></svg>