<svg xmlns="http://www.w3.org/2000/svg" xmlns:xlink="http://www.w3.org/1999/xlink" width="524.439" height="332.415" viewBox="0 0 524.439 332.415"><defs><style>.a{fill:#b2b2c2;}.b{fill:#e6e6e6;}.c{fill:#2f2e41;}.d{fill:#a0616a;}.e{fill:#face48;}.f{fill:#f2f2f2;}.g{fill:none;}.h{fill:#fff;}.i{opacity:0.5;}.j{fill:url(#a);}.k{fill:url(#b);}.l{fill:#fda57d;}.m{opacity:0.05;}.n{opacity:0.1;}</style><linearGradient id="a" x1="0.5" y1="1" x2="0.5" gradientUnits="objectBoundingBox"><stop offset="0" stop-color="gray" stop-opacity="0.251"/><stop offset="0.54" stop-color="gray" stop-opacity="0.122"/><stop offset="1" stop-color="gray" stop-opacity="0.102"/></linearGradient><linearGradient id="b" x1="0" y1="0.5" x2="1" y2="0.5" xlink:href="#a"/></defs><g transform="translate(-988 -416.208)"><g transform="translate(988 416.208)"><path class="a" d="M179.3,748.213l-8.8-24.646s9.682,4.841,10.122,11c0,0-2.2-30.807-6.6-37.409,0,0,7.042.88,14.963,35.208,0,0,1.32-39.609-10.562-51.052,0,0,16.284,13.2,17.6,41.81v25.086Z" transform="translate(-148.455 -415.797)"/><path class="a" d="M690.022,764.09l5.8-16.244s-6.381,3.191-6.672,7.252c0,0,1.45-20.3,4.351-24.656,0,0-4.641.58-9.862,23.205,0,0-.87-26.106,6.962-33.648,0,0-10.732,8.7-11.6,27.556V764.09Z" transform="translate(-361.958 -432.039)"/><path class="a" d="M534.6,770.692,530,757.809s5.061,2.531,5.291,5.751c0,0-1.15-16.1-3.451-19.554,0,0,3.681.46,7.822,18.4,0,0,.69-20.7-5.521-26.686,0,0,8.512,6.9,9.2,21.855v13.113Z" transform="translate(-299.398 -438.641)"/><path class="b" d="M451.428,489.021c-2.321,0-4.655-.075-6.953-.221l.074-1.158c2.276.145,4.588.219,6.873.219h.069v1.16h-.054Zm7.081-.231-.076-1.158c2.3-.15,4.627-.378,6.912-.676l.151,1.15c-2.31.3-4.66.533-6.986.684Zm-21.022-.665c-2.314-.3-4.645-.68-6.929-1.131l.224-1.139c2.259.446,4.566.822,6.854,1.118Zm34.936-1.159-.225-1.138c2.26-.449,4.536-.978,6.763-1.574l.3,1.121c-2.251.6-4.552,1.138-6.838,1.591Zm-48.706-1.555c-2.248-.6-4.51-1.281-6.721-2.03l.372-1.1c2.188.74,4.425,1.416,6.648,2.008Zm62.262-2.075-.373-1.1c2.176-.739,4.358-1.562,6.487-2.446l.445,1.072C490.387,481.755,488.18,482.588,485.98,483.335Zm-75.567-2.428c-2.153-.891-4.307-1.866-6.4-2.9l.513-1.04c2.074,1.022,4.2,1.987,6.334,2.868Zm88.511-2.945-.514-1.04c2.067-1.022,4.124-2.124,6.116-3.277l.581,1c-2.013,1.165-4.093,2.28-6.183,3.313Zm-101.113-3.269c-2.019-1.167-4.027-2.416-5.966-3.713l.645-.964c1.919,1.283,3.9,2.518,5.9,3.672Zm113.25-3.756-.646-.964c1.913-1.28,3.81-2.642,5.64-4.048l.707.92c-1.85,1.422-3.768,2.8-5.7,4.093Zm-124.925-4.05c-1.848-1.419-3.675-2.918-5.43-4.455l.765-.872c1.736,1.521,3.543,3,5.371,4.408Zm136.051-4.5-.766-.872c1.732-1.521,3.438-3.118,5.069-4.749l.82.82C525.661,459.236,523.938,460.851,522.187,462.388ZM375.58,457.634c-1.65-1.648-3.266-3.37-4.8-5.12l.871-.766c1.521,1.731,3.12,3.435,4.752,5.065Zm156.533-5.17-.872-.765c1.522-1.734,3.006-3.54,4.411-5.368l.92.707c-1.42,1.848-2.921,3.674-4.459,5.427Zm-165.8-5.371c-1.421-1.847-2.8-3.764-4.1-5.7l.964-.646c1.283,1.914,2.647,3.811,4.052,5.637Zm174.353-5.763-.964-.645c1.284-1.918,2.521-3.9,3.676-5.9l1,.581c-1.168,2.018-2.418,4.024-3.715,5.963ZM358.5,435.442c-1.169-2.017-2.285-4.1-3.317-6.181l1.04-.515c1.021,2.062,2.125,4.119,3.281,6.114Zm189.2-6.271-1.04-.514c1.021-2.068,1.988-4.2,2.873-6.332l1.072.444c-.9,2.157-1.872,4.311-2.9,6.4Zm-195.42-6.292c-.894-2.15-1.728-4.356-2.478-6.558l1.1-.374c.742,2.177,1.566,4.36,2.451,6.487Zm200.8-6.69-1.1-.372c.74-2.185,1.417-4.421,2.012-6.647l1.121.3c-.6,2.25-1.286,4.511-2.034,6.72ZM347.761,409.6c-.6-2.251-1.142-4.551-1.6-6.837l1.138-.227c.45,2.261.981,4.536,1.579,6.763Zm208.944-6.975-1.139-.225c.448-2.261.825-4.567,1.123-6.853l1.15.15C557.54,398.011,557.157,400.342,556.705,402.628Zm-211.685-6.789c-.3-2.3-.535-4.655-.689-6.986l1.158-.076c.152,2.306.382,4.631.682,6.911Zm213.5-7.127-1.158-.075c.148-2.292.223-4.628.223-6.941v-.275h1.16v.272C558.746,384.034,558.67,386.395,558.521,388.712Zm-213.263-6.877H344.1v-.142c0-2.286.073-4.6.217-6.873l1.158.073c-.142,2.249-.214,4.539-.214,6.8Zm212.087-7.355c-.154-2.3-.386-4.627-.69-6.91l1.15-.153c.307,2.309.542,4.659.7,6.986Zm-211.21-6.5-1.151-.148c.3-2.311.677-4.643,1.126-6.93l1.139.224C346.805,363.387,346.43,365.693,346.135,367.98Zm209.378-7.26c-.453-2.26-.987-4.534-1.588-6.76l1.121-.3c.607,2.251,1.147,4.551,1.6,6.835Zm-206.7-6.362-1.121-.3c.6-2.254,1.281-4.516,2.026-6.723l1.1.371C350.077,349.891,349.4,352.128,348.811,354.358Zm203.085-7.04c-.745-2.179-1.572-4.36-2.459-6.483l1.071-.447c.9,2.147,1.732,4.352,2.486,6.555ZM353.256,341.2l-1.072-.443c.891-2.156,1.865-4.311,2.9-6.406l1.041.513C355.1,336.932,354.137,339.064,353.256,341.2Zm193.3-6.672c-1.021-2.057-2.127-4.112-3.289-6.11l1-.583c1.174,2.019,2.293,4.1,3.325,6.177Zm-187.161-5.8-1.005-.58c1.165-2.019,2.412-4.027,3.708-5.968l.965.644c-1.282,1.92-2.516,3.907-3.668,5.9Zm180.189-6.2c-1.287-1.914-2.653-3.809-4.06-5.632l.919-.709c1.421,1.843,2.8,3.758,4.1,5.693Zm-172.475-5.359-.921-.706c1.419-1.851,2.917-3.679,4.452-5.433l.873.764c-1.519,1.735-3,3.543-4.4,5.374Zm164-5.63c-1.522-1.728-3.123-3.43-4.759-5.059l.819-.822c1.653,1.647,3.272,3.368,4.81,5.114Zm-154.849-4.82-.821-.819c1.646-1.65,3.368-3.268,5.117-4.807l.767.871c-1.73,1.523-3.433,3.123-5.062,4.755Zm145.011-4.979c-1.738-1.52-3.547-3-5.376-4.4l.7-.921c1.85,1.415,3.678,2.912,5.435,4.448Zm-134.59-4.191-.708-.919c1.845-1.422,3.762-2.8,5.7-4.1l.647.963c-1.913,1.285-3.809,2.65-5.634,4.056Zm123.56-4.251c-1.919-1.28-3.907-2.513-5.906-3.664l.579-1.006c2.021,1.164,4.03,2.411,5.971,3.7ZM398.2,289.817l-.582-1c2.013-1.168,4.091-2.286,6.178-3.321l.516,1.04c-2.063,1.024-4.119,2.129-6.111,3.285Zm100-3.451c-2.072-1.019-4.2-1.981-6.337-2.861l.442-1.072c2.157.889,4.313,1.862,6.408,2.892Zm-87.573-2.711-.446-1.071c2.15-.9,4.355-1.73,6.556-2.482l.375,1.1C414.93,281.943,412.749,282.769,410.622,283.655Zm74.722-2.587c-2.185-.736-4.422-1.409-6.651-2l.3-1.122c2.253.6,4.515,1.277,6.724,2.022Zm-61.595-1.893-.3-1.121c2.249-.606,4.549-1.144,6.835-1.6l.228,1.138c-2.261.452-4.536.985-6.762,1.584Zm48.176-1.664c-2.259-.442-4.566-.815-6.855-1.109l.147-1.151c2.314.3,4.646.674,6.931,1.121Zm-34.564-1.056-.152-1.15c2.3-.3,4.655-.538,6.986-.693l.077,1.158c-2.305.154-4.631.385-6.911.686Zm20.8-.712c-2.227-.139-4.493-.21-6.735-.21h-.207v-1.16h.2c2.269,0,4.559.071,6.81.212Z" transform="translate(-221.343 -244.934)"/><path class="c" d="M330.125,239.628h0c-16.08,0-27.786,10.918-31.733,26.506L293.5,289.519h3.481l7.542-19.144-1.588,19.144h3.908l2.9-9.862-.611,9.862h47.021V265.657a26.03,26.03,0,0,0-26.029-26.029Z" transform="translate(-200.099 -230.346)"/><path class="d" d="M337.862,292.128s2.321,13.923-3.481,16.244-6.381,2.32-6.381,2.32L338.442,342.6l12.763,4.061,13.923-37.709-6.381-2.9s-6.381-8.7-4.061-13.923Z" transform="translate(-214.584 -252.389)"/><path class="c" d="M290.882,473.621s-11.6,13.923-8.7,62.074l-.58,13.923S251.433,627.936,271.158,632s21.465,6.962,23.205,2.321,29.587-111.385,29.587-111.385S346.575,633.738,357.6,632.577s25.526,2.321,24.946-6.381-13.923-75.417-13.923-75.417-2.9-79.478-17.984-84.119S304.805,460.278,290.882,473.621Z" transform="translate(-187.909 -324.238)"/><path class="c" d="M276.321,747.128,271.1,760.471s-9.282,12.763-3.481,14.5,13.923-2.9,13.923-2.9,4.641-17.4,4.641-22.045Z" transform="translate(-188.432 -443.429)"/><path class="c" d="M442.862,747.128l5.221,13.343s9.282,12.763,3.481,14.5-13.923-2.9-13.923-2.9S433,754.67,433,750.029Z" transform="translate(-258.67 -443.429)"/><circle class="d" cx="14.503" cy="14.503" r="14.503" transform="translate(116.316 17.694)"/><path class="e" d="M337.551,342.493s-12.763-5.8-17.984-22.625l-9.282,2.9s2.9,18.564,1.16,22.625c0,0-2.321,58.593-1.16,59.754s-9.282,11.022-5.8,12.183,22.045-1.74,19.724-5.221l-2.321-3.481,39.449.58s-2.9,8.122,5.221,8.122,3.481-15.664,3.481-15.664l-5.221-53.952s-5.8-19.724-4.061-26.686l-8.122-2.9S347.993,334.952,337.551,342.493Z" transform="translate(-204.411 -263.306)"/><path class="c" d="M200.619,152.763l-.488,4.641h13.251l1.74-3.481-.366,3.481h16.03L219.764,140l-24.366.58L189.6,157.4h8.7Z" transform="translate(-79.606 -128.546)"/><rect class="f" width="151.414" height="85.859" transform="translate(232.053 51.052)"/><path class="g" d="M496.7,294.276H399v-87.02H551.575v34.2h-1.16V208.416H400.16v84.7H496.7Z" transform="translate(-167.527 -156.785)"/><rect class="f" width="151.414" height="85.859" transform="translate(55.693 174.039)"/><path class="a" d="M193.7,506.276H96v-87.02H248.575v34.2h-1.16V420.416H97.16v84.7H193.7Z" transform="translate(-40.307 -245.797)"/><path class="d" d="M305.514,325.623s-12.183-.58-12.183,9.282,1.16,41.189,1.16,41.189l1.16,9.862-.58,40.029s-11.023,24.946-3.481,25.526,11.6-22.625,11.6-22.625L305.514,408s-1.45-56.563.29-58.883Z" transform="translate(-198.189 -266.45)"/><path class="d" d="M401.29,322.623s12.183-.58,12.183,9.282-1.16,41.189-1.16,41.189l-1.16,9.862.58,40.029s11.022,24.946,3.481,25.526-11.6-22.625-11.6-22.625L401.29,405s1.45-56.563-.29-58.883Z" transform="translate(-245.235 -265.19)"/><circle class="e" cx="26.686" cy="26.686" r="26.686" transform="translate(105.584 190.283)"/><path class="h" d="M232.968,479.5H216.724V463.256h-3.481V479.5H197v3.481h16.244v16.244h3.481V482.98h16.244Z" transform="translate(-82.714 -264.271)"/><rect class="h" width="24.946" height="13.343" transform="translate(499.493 0)"/><rect class="a" width="463.525" height="1.16" transform="translate(0 331.255)"/><g transform="translate(281.539 68.249)"><g class="i"><ellipse class="j" cx="27.321" cy="26.747" rx="27.321" ry="26.747"/></g><ellipse class="h" cx="25.691" cy="25.117" rx="25.691" ry="25.117" transform="translate(1.63 1.63)"/><g class="i" transform="translate(15.677 6.755)"><path class="k" d="M847.631,391.39l-.458-.163-.024.041h-.027v-1.243a2.855,2.855,0,0,0-.035-.448,4.752,4.752,0,0,0,1.63-2.151,5.6,5.6,0,1,0-8.875,0,4.752,4.752,0,0,0,1.63,2.151,2.862,2.862,0,0,0-.035.448v1.361h0a11.611,11.611,0,0,0-8.527,11.2v10.185h23.221V402.59A11.611,11.611,0,0,0,847.631,391.39Z" transform="translate(-832.91 -378.401)"/></g><path class="e" d="M683.039,245.71h0a11.179,11.179,0,0,1,11.179,11.179v9.81H671.86v-9.81A11.179,11.179,0,0,1,683.039,245.71Z" transform="translate(-655.753 -224.545)"/><rect class="l" width="5.475" height="6.844" rx="2.738" transform="translate(24.383 16.767)"/><path class="m" d="M702.86,248.984l1.835,3.935,1.825-1.825L704.7,248.3Z" transform="translate(-680.57 -227.17)"/><path class="h" d="M866.3,443.233l1.833,3.935,1.833-1.833-1.833-2.795-.839.257a2.118,2.118,0,0,0-.24.09Z" transform="translate(-843.942 -421.62)"/><path class="m" d="M734.078,248.212l-1.843,4.127-1.825-1.825,1.876-2.943Z" transform="translate(-702.106 -226.593)"/><path class="h" d="M896.906,442.468l-1.833,4.129-1.833-1.833,1.876-2.943.344.1a9.148,9.148,0,0,1,1.09.389Z" transform="translate(-865.002 -421.052)"/><path class="l" d="M720.47,260.37l1.021,1.489,1.078-1.489Z" transform="translate(-694.387 -236.724)"/><path class="n" d="M853.191,482.07s-1.088,10.816-.385,11.521" transform="translate(-833.28 -452.381)"/><path class="n" d="M921.6,482.07s1.088,10.816.385,11.521" transform="translate(-887.299 -452.381)"/><path class="m" d="M878.183,426.866a4.54,4.54,0,0,0,2.7-.88,2.738,2.738,0,0,0-2.7-2.306h0a2.738,2.738,0,0,0-2.7,2.306A4.541,4.541,0,0,0,878.183,426.866Z" transform="translate(-851.062 -406.842)"/><circle cx="5.394" cy="5.394" r="5.394" transform="translate(21.706 7.39)"/><circle class="l" cx="4.563" cy="4.563" r="4.563" transform="translate(22.544 10.521)"/><path class="m" d="M870.7,389.081l1.153,1.408s5.056.448,5.632-.7-3.328-1.984-3.328-1.984Z" transform="translate(-847.28 -378.668)"/><path d="M870.7,388.451l1.153,1.408s5.056.448,5.632-.7-3.328-1.984-3.328-1.984Z" transform="translate(-847.28 -378.173)"/><ellipse class="l" cx="0.32" cy="0.576" rx="0.32" ry="0.576" transform="translate(21.934 14.301)"/><ellipse class="l" cx="0.32" cy="0.576" rx="0.32" ry="0.576" transform="translate(31.705 14.301)"/></g><g transform="translate(323.539 71.054)"><circle class="e" cx="6.962" cy="6.962" r="6.962" transform="translate(0)"/><path class="h" d="M652.9,342.015h-4.237v-4.238h-.908v4.238h-4.238v.908h4.238v4.238h.908v-4.238H652.9Z" transform="translate(-641.252 -335.507)"/></g></g></g></svg>