<svg xmlns="http://www.w3.org/2000/svg" width="332.982" height="347.757" viewBox="0 0 332.982 347.757"><defs><style>.a{fill:#e6e6e6;}.b{fill:#fff;}.c{fill:#ffb8b8;}.d{fill:#2f2e41;}.e{fill:#face48;}</style></defs><g transform="translate(-48.862)"><path class="a" d="M430.623,181.278A2.724,2.724,0,0,0,427.9,184V475.086a2.724,2.724,0,0,0,2.721,2.721h234.5a2.724,2.724,0,0,0,2.72-2.72V184a2.724,2.724,0,0,0-2.72-2.72Z" transform="translate(-309.942 -153.5)"/><path class="b" d="M657.946,408.064H497.984a4.081,4.081,0,1,1,0-8.161H657.946a4.081,4.081,0,0,1,0,8.161Z" transform="translate(-340.032 -253.174)"/><path class="b" d="M706.733,268.314H600.61c-1.5,0-2.707-1.827-2.707-4.081s1.212-4.081,2.707-4.081H706.733c1.5,0,2.707,1.827,2.707,4.081S708.228,268.314,706.733,268.314Z" transform="translate(-387.446 -189.46)"/><path class="b" d="M706.733,311.314H600.61c-1.5,0-2.707-1.827-2.707-4.081s1.212-4.081,2.707-4.081H706.733c1.5,0,2.707,1.827,2.707,4.081S708.228,311.314,706.733,311.314Z" transform="translate(-387.446 -209.064)"/><path class="b" d="M657.946,456.564H497.984a4.081,4.081,0,1,1,0-8.161H657.946a4.081,4.081,0,0,1,0,8.161Z" transform="translate(-340.032 -275.286)"/><path class="b" d="M657.946,505.064H497.984a4.081,4.081,0,1,1,0-8.161H657.946a4.081,4.081,0,0,1,0,8.161Z" transform="translate(-340.032 -297.397)"/><path class="b" d="M657.946,553.564H497.984a4.081,4.081,0,1,1,0-8.161H657.946a4.081,4.081,0,1,1,0,8.161Z" transform="translate(-340.032 -319.509)"/><path class="b" d="M657.946,602.064H497.984a4.081,4.081,0,1,1,0-8.161H657.946a4.081,4.081,0,0,1,0,8.161Z" transform="translate(-340.032 -341.621)"/><path class="b" d="M657.946,650.564H497.984a4.081,4.081,0,1,1,0-8.161H657.946a4.081,4.081,0,0,1,0,8.161Z" transform="translate(-340.032 -363.733)"/><circle class="b" cx="21.491" cy="21.491" r="21.491" transform="translate(153.871 65.252)"/><path class="b" d="M594.265,414.9" transform="translate(-385.788 -260.013)"/><path class="c" d="M476.312,412.531l-32.048,17.038-.406-14.2a94.913,94.913,0,0,0,29.614-9.736l3.352-8.281a5.614,5.614,0,0,1,9.541-1.457h0a5.613,5.613,0,0,1-.494,7.655Z" transform="translate(-317.216 -250.412)"/><path class="d" d="M359.4,590.988h0a6.3,6.3,0,0,1,.8-5.094l7.04-10.8a12.3,12.3,0,0,1,15.961-4.211h0c-2.959,5.036-2.546,9.455,1.022,13.294a64,64,0,0,0-15.2,10.362,6.3,6.3,0,0,1-9.623-3.546Z" transform="translate(-278.608 -330.496)"/><path class="d" d="M456.7,543.369h0a12.081,12.081,0,0,1-10.267,5.865l-46.77.354-2.028-11.765,20.689-6.085-17.444-13.387,19.067-22.312,34.631,32.278a12.08,12.08,0,0,1,2.123,15.053Z" transform="translate(-296.14 -297.003)"/><path class="d" d="M370.453,596.632H359.5c-9.834-67.411-19.844-135.011,9.737-160.242l34.888,5.679-4.462,29.614L380.189,494Z" transform="translate(-274.237 -269.809)"/><path class="d" d="M385.629,748.173h0a6.3,6.3,0,0,1-5.094-.8l-10.8-7.039a12.3,12.3,0,0,1-4.212-15.961h0c5.036,2.958,9.455,2.546,13.294-1.023a64,64,0,0,0,10.363,15.2,6.3,6.3,0,0,1-3.546,9.623Z" transform="translate(-280.872 -400.638)"/><path class="d" d="M425.777,309.6h-52.07c-9.616-13.6-10.745-26.613,0-38.79,0-5.384,6.955-9.749,15.534-9.749h0c6.72,0,12.679,2.712,14.766,6.721Z" transform="translate(-281.749 -189.876)"/><path class="c" d="M418.66,330.173,398.377,325.3c3.369-6.9,3.646-14.569,2.028-22.718l13.793-.406C414.63,312.315,415.938,321.782,418.66,330.173Z" transform="translate(-296.48 -208.621)"/><path class="e" d="M414.079,408.053c-14.766,10.062-25.2.344-33.161-14.649,1.106-9.174-.685-20.153-4-32.083a21.838,21.838,0,0,1,13.333-26.334h0l17.444,7.3c14.812,12.074,17.728,25.152,12.17,38.945Z" transform="translate(-286.325 -223.578)"/><path class="c" d="M337.3,358.331l-16.227,8.519,28.8,17.038,4.008,9.886a5.243,5.243,0,0,1-3.15,6.927h0a5.243,5.243,0,0,1-6.943-4.649l-.405-6.89-36.608-12.081a8.56,8.56,0,0,1-5.372-5.229h0a8.56,8.56,0,0,1,3.212-9.958l29.438-20.2Z" transform="translate(-252.041 -226.638)"/><path class="e" d="M379.275,356.364c-6.768-2.966-12.922.256-20.689,2.84l-1.217-21.5c7.713-4.111,15.067-5.219,21.907-2.028Z" transform="translate(-277.784 -223.049)"/><path class="d" d="M430.217,310.455H418.732c-7.148-13.186-6.823-36.484-22.186-31.292-9.87-5.858-4.207,17.13-6.661,31.292H379.9c-2.714-13.836-2.752-27.7.441-38.976a5.253,5.253,0,0,1,1.911-3.841,10.859,10.859,0,0,1,1.6-1.217c3.529-2.224,5.9-3.49,11.056-3.49a31.124,31.124,0,0,1,8.535,1.174c.361.106.718.219,1.063.338.475.163.933.341,1.371.531a9.435,9.435,0,0,1,4.868,3.926C420.464,280.493,425.426,295.118,430.217,310.455Z" transform="translate(-287.144 -190.727)"/><circle class="c" cx="12.95" cy="12.95" r="12.95" transform="translate(96.636 78.309)"/><path class="d" d="M414.639,279.535c-3.9-5.31-14.056,1.024-26.271,5.55v-12.58c10.048-4.423,15.907-5.7,22.571-1.11Z" transform="translate(-291.917 -193.271)"/><circle class="e" cx="31.372" cy="31.372" r="31.372" transform="translate(319.101 0)"/><path class="b" d="M829.485,173.125a2.07,2.07,0,0,0,0,4.14h11v11a2.07,2.07,0,1,0,4.14,0v-11h11a2.07,2.07,0,1,0,0-4.14h-11v-11a2.07,2.07,0,1,0-4.14,0v11Z" transform="translate(-492.084 -143.824)"/></g></svg>