<svg xmlns="http://www.w3.org/2000/svg" width="578.652" height="382.806" viewBox="0 0 578.652 382.806"><defs><style>.a{fill:#d59478;}.b{fill:#2f2e41;}.c{fill:#3f3d56;}.d{fill:#face48;}.e{fill:#fff;}.f{fill:#e6e6e6;}</style></defs><g transform="translate(0 0)"><path class="a" d="M604,470.211H591.573V349.286l28.254-.565Z" transform="translate(-178.972 -105.501)"/><path class="a" d="M688.413,470.211h12.432V349.286l-28.254-.565Z" transform="translate(-203.483 -105.501)"/><path class="b" d="M770.11,708.439l-26.451-.242A8.6,8.6,0,0,1,733,699.85h0a8.6,8.6,0,0,1,4.871-7.748l6.034-2.9,19.609-13.4,14.127,3.956,2.706,12.175A13.9,13.9,0,0,1,770.11,708.439Z" transform="translate(-350.911 -326.909)"/><path class="b" d="M872.192,708.224l-26.451-.242a8.6,8.6,0,0,1-10.661-8.347h0a8.6,8.6,0,0,1,4.871-7.748l6.034-2.9,19.609-13.4,14.127,3.956,2.706,12.175A13.9,13.9,0,0,1,872.192,708.224Z" transform="translate(-381.795 -326.844)"/><path class="b" d="M861.938,517l-38.948-3.477-5.128-45.684-11.484,44.2-39.372-3.515c1.452-27.066,4.575-49.643,11.866-61.028l82.5-14.692Z" transform="translate(-361.2 -253.395)"/><circle class="a" cx="21.044" cy="21.044" r="21.044" transform="translate(440.333 9.95)"/><path class="a" d="M854.777,269.2l-36.729-4.521c4.673-9.951,6.779-19.243,3.39-27.123h28.253C845.324,245.346,849.229,256.9,854.777,269.2Z" transform="translate(-376.641 -194.324)"/><path class="c" d="M865.54,382.462c-25.845,18.95-54.051,25.416-84.76,18.647,18.633-42.539,15.972-84.466,0-126.011l29.384-12.432c8.239,8.037,17.688,8.212,28.254,1.13l28.819,6.216C861.964,311.457,860.2,349.953,865.54,382.462Z" transform="translate(-365.367 -201.922)"/><path class="b" d="M821.434,188.2l-3.554-1.423s7.43-8.18,17.768-7.469l-2.908-3.2s7.107-2.845,13.568,4.624c3.4,3.926,7.326,8.541,9.776,13.74h3.806l-1.588,3.5,5.559,3.5-5.706-.628a19.354,19.354,0,0,1-.54,9.058l.153,2.764s-6.614-10.233-6.614-11.656v3.557s-3.554-3.2-3.554-5.335l-1.938,2.49-.969-3.912-11.953,3.912,1.938-3.2-7.43,1.067,2.907-3.912s-8.4,4.624-8.722,8.536-4.523,8.891-4.523,8.891l-1.938-3.557S812.066,193.533,821.434,188.2Z" transform="translate(-375.583 -175.573)"/><path class="d" d="M852.213,485.867H724.577a4.888,4.888,0,0,1-4.882-4.882V461.455a4.888,4.888,0,0,1,4.882-4.882H852.213a4.888,4.888,0,0,1,4.882,4.882v19.529A4.888,4.888,0,0,1,852.213,485.867Z" transform="translate(-346.886 -260.586)"/><path class="e" d="M752.256,471.627a4.147,4.147,0,1,0,0,8.295H841.59a4.148,4.148,0,0,0,.136-8.294H752.256Z" transform="translate(-355.482 -265.14)"/><path class="a" d="M790.532,418.2l6.488,11.565a10.269,10.269,0,0,1-6.364,14.961h0A10.269,10.269,0,0,1,777.8,434.591l.3-15.827c-4.874-28.133-8.831-54.77-7.911-73.459h22.6l-4.521,21.473Z" transform="translate(-362.122 -226.923)"/><path class="a" d="M896.923,417.838l-4.752,7.92a9.151,9.151,0,0,1-15.248.674h0A9.151,9.151,0,0,1,879,413.6l8.312-5.937,11.866-49.161-7.346-20.343,20.343-3.39C921.731,356.848,912.11,386.275,896.923,417.838Z" transform="translate(-393.924 -223.737)"/><path class="c" d="M796.955,328.012l-29.949-1.7,2.057-32.09a20.235,20.235,0,0,1,15.052-20.021l3.8-1.005Z" transform="translate(-361.2 -205.109)"/><path class="c" d="M919.463,317.056l-27.688,6.781V270.72l1.143-.074a19.011,19.011,0,0,1,19.813,14.988Z" transform="translate(-398.947 -204.324)"/><rect class="f" width="422.73" height="1.395" transform="translate(155.922 381.411)"/><path class="f" d="M211.775,610.531a150.577,150.577,0,0,0,7.034,41.624c.1.313.2.621.3.933h26.25c-.028-.28-.056-.593-.084-.933-1.75-20.121-11.841-142.585.224-163.527C244.447,490.327,209.739,546.6,211.775,610.531Z" transform="translate(-193.196 -270.284)"/><path class="f" d="M205.723,684.56c.219.313.448.625.681.933H226.1c-.149-.266-.322-.579-.523-.933-3.253-5.872-12.882-23.426-21.82-41.624-9.606-19.557-18.418-39.855-17.676-47.2C185.848,597.39,179.2,647.9,205.723,684.56Z" transform="translate(-185.174 -302.687)"/><path class="d" d="M472.061,343.923H257.939a4.888,4.888,0,0,1-4.882-4.882V219.774a4.888,4.888,0,0,1,4.882-4.882H472.061a4.888,4.888,0,0,1,4.882,4.882V339.041A4.888,4.888,0,0,1,472.061,343.923Z" transform="translate(-205.711 -187.469)"/><path class="f" d="M474.043,570.141h-219.7a3.491,3.491,0,0,1-3.487-3.487V217.938a3.491,3.491,0,0,1,3.487-3.487h219.7a3.491,3.491,0,0,1,3.487,3.487V566.654A3.491,3.491,0,0,1,474.043,570.141Zm-219.7-354.295a2.1,2.1,0,0,0-2.092,2.092V566.654a2.1,2.1,0,0,0,2.092,2.092h219.7a2.1,2.1,0,0,0,2.092-2.092V217.938a2.1,2.1,0,0,0-2.092-2.092Z" transform="translate(-205.045 -187.335)"/><circle class="f" cx="7.672" cy="7.672" r="7.672" transform="translate(67.572 205.974)"/><path class="f" d="M467.575,490.185H339.939a4.888,4.888,0,0,1-4.882-4.882V465.774a4.888,4.888,0,0,1,4.882-4.882H467.575a4.888,4.888,0,0,1,4.882,4.882V485.3a4.888,4.888,0,0,1-4.882,4.882Z" transform="translate(-230.519 -261.893)"/><path class="c" d="M472.155,503.287h-137.4a.7.7,0,0,1,0-1.395h137.4a.7.7,0,0,1,0,1.395Z" transform="translate(-230.217 -274.296)"/><circle class="f" cx="7.672" cy="7.672" r="7.672" transform="translate(67.572 252.007)"/><path class="f" d="M467.575,556.185H339.939a4.888,4.888,0,0,1-4.882-4.882V531.774a4.888,4.888,0,0,1,4.882-4.882H467.575a4.888,4.888,0,0,1,4.882,4.882V551.3a4.888,4.888,0,0,1-4.882,4.882Z" transform="translate(-230.519 -281.86)"/><path class="c" d="M472.155,569.287h-137.4a.7.7,0,1,1,0-1.395h137.4a.7.7,0,0,1,0,1.395Z" transform="translate(-230.217 -294.264)"/><circle class="f" cx="7.672" cy="7.672" r="7.672" transform="translate(67.572 298.039)"/><path class="f" d="M392.946,622.185H339.939a4.888,4.888,0,0,1-4.882-4.882V597.774a4.888,4.888,0,0,1,4.882-4.882h53.007a4.888,4.888,0,0,1,4.882,4.882V617.3a4.888,4.888,0,0,1-4.882,4.882Z" transform="translate(-230.519 -301.827)"/><path class="c" d="M397.526,635.287H334.754a.7.7,0,1,1,0-1.395h62.772a.7.7,0,1,1,0,1.395Z" transform="translate(-230.217 -314.231)"/><path class="f" d="M499.946,622.185H446.939a4.888,4.888,0,0,1-4.882-4.882V597.774a4.888,4.888,0,0,1,4.882-4.882h53.007a4.888,4.888,0,0,1,4.882,4.882V617.3A4.888,4.888,0,0,1,499.946,622.185Z" transform="translate(-262.891 -301.827)"/><path class="c" d="M504.526,635.287H441.754a.7.7,0,1,1,0-1.395h62.772a.7.7,0,1,1,0,1.395Z" transform="translate(-262.588 -314.231)"/><path class="e" d="M291.618,268.446a4.147,4.147,0,1,0,0,8.295H459.069a4.148,4.148,0,0,0,.136-8.294H291.618Z" transform="translate(-216.123 -203.67)"/><path class="e" d="M291.618,301.446a4.147,4.147,0,1,0,0,8.295H459.069a4.148,4.148,0,0,0,.136-8.294H291.618Z" transform="translate(-216.123 -213.654)"/><path class="e" d="M291.618,334.446a4.147,4.147,0,1,0,0,8.295H459.069a4.148,4.148,0,0,0,.136-8.294H291.618Z" transform="translate(-216.123 -223.638)"/><path class="d" d="M518.226,683.376l-1.755-1.755a.407.407,0,0,0-.288-.119h-.854a.408.408,0,0,0-.288.7l.972.971h-7.758a.7.7,0,1,0,0,1.395h7.757l-.872.872a.466.466,0,0,0,.329.8h.69a.466.466,0,0,0,.33-.137l1.738-1.738a.693.693,0,0,0,0-.98Z" transform="translate(-282.707 -328.635)"/><path class="c" d="M511.216,691.211a11.159,11.159,0,1,1,11.159-11.159A11.159,11.159,0,0,1,511.216,691.211Zm0-20.924a9.764,9.764,0,1,0,9.765,9.765A9.764,9.764,0,0,0,511.216,670.287Z" transform="translate(-280.438 -324.82)"/></g></svg>