<svg xmlns="http://www.w3.org/2000/svg" width="126" height="95" viewBox="0 0 126 95"><defs><style>.a,.d{fill:#fff;}.a{font-size:20px;font-family:OpenSans-Regular, Open Sans;}.b{fill:none;}.c,.d{stroke:none;}</style></defs><g transform="translate(-897 -926)"><text class="a" transform="translate(960 1015)"><tspan x="-62.515" y="0">Role a página</tspan></text><g class="b" transform="translate(1299 914)"><path class="c" d="M-339,67a18.876,18.876,0,0,1-13.435-5.565A18.876,18.876,0,0,1-358,48V31a18.876,18.876,0,0,1,5.565-13.435A18.876,18.876,0,0,1-339,12a18.876,18.876,0,0,1,13.435,5.565A18.876,18.876,0,0,1-320,31V48a18.876,18.876,0,0,1-5.565,13.435A18.876,18.876,0,0,1-339,67Zm.4-45.142a3.566,3.566,0,0,0-3.562,3.562v7.8a3.566,3.566,0,0,0,3.562,3.562,3.566,3.566,0,0,0,3.562-3.562v-7.8A3.566,3.566,0,0,0-338.6,21.857Z"/><path class="d" d="M -339.0003051757813 64.99960327148438 C -334.45947265625 64.99960327148438 -330.1904296875 63.23138427734375 -326.9796142578125 60.02067184448242 C -323.7687072753906 56.80985260009766 -322.0003967285156 52.54073333740234 -322.0003967285156 47.99970245361328 L -322.0003967285156 30.99960327148438 C -322.0003967285156 26.45890235900879 -323.7687377929688 22.18988227844238 -326.9796447753906 18.97895240783691 C -330.1905822753906 15.76803302764893 -334.4595947265625 13.99970245361328 -339.0003051757813 13.99970245361328 C -343.541015625 13.99970245361328 -347.8100280761719 15.76803302764893 -351.0209655761719 18.97894287109375 C -354.2318725585938 22.18988227844238 -356.0002136230469 26.45890235900879 -356.0002136230469 30.99960327148438 L -356.0002136230469 47.99970245361328 C -356.0002136230469 52.54073333740234 -354.2318725585938 56.80986404418945 -351.02099609375 60.02066421508789 C -347.8101501464844 63.23138427734375 -343.5411376953125 64.99960327148438 -339.0003051757813 64.99960327148438 M -338.6043090820313 19.85740280151367 C -335.5372924804688 19.85740280151367 -333.0421142578125 22.35259246826172 -333.0421142578125 25.41960334777832 L -333.0421142578125 33.22350311279297 C -333.0421142578125 36.29051208496094 -335.5372924804688 38.78570175170898 -338.6043090820313 38.78570175170898 C -341.6713256835938 38.78570175170898 -344.16650390625 36.29051208496094 -344.16650390625 33.22350311279297 L -344.16650390625 25.41960334777832 C -344.16650390625 22.35259246826172 -341.6713256835938 19.85740280151367 -338.6043090820313 19.85740280151367 M -339.0003051757813 66.99960327148438 C -344.0753479003906 66.99960327148438 -348.8466186523438 65.02335357666016 -352.4351806640625 61.43490219116211 C -356.0238342285156 57.84635162353516 -358.0002136230469 53.07497406005859 -358.0002136230469 47.99970245361328 L -358.0002136230469 30.99960327148438 C -358.0002136230469 25.92467308044434 -356.0238342285156 21.15341377258301 -352.4351806640625 17.56473350524902 C -348.8464965820313 13.97607326507568 -344.0752258300781 11.99970245361328 -339.0003051757813 11.99970245361328 C -333.9253845214844 11.99970245361328 -329.1541137695313 13.97607326507568 -325.5654296875 17.56473350524902 C -321.9767761230469 21.15341377258301 -320.0003967285156 25.92467308044434 -320.0003967285156 30.99960327148438 L -320.0003967285156 47.99970245361328 C -320.0003967285156 53.07497406005859 -321.9767761230469 57.84635162353516 -325.5654296875 61.43490219116211 C -329.1539916992188 65.02335357666016 -333.9252624511719 66.99960327148438 -339.0003051757813 66.99960327148438 Z M -338.6043090820313 21.85740280151367 C -340.5685119628906 21.85740280151367 -342.16650390625 23.45540237426758 -342.16650390625 25.41960334777832 L -342.16650390625 33.22350311279297 C -342.16650390625 35.18770217895508 -340.5685119628906 36.78570175170898 -338.6043090820313 36.78570175170898 C -336.6401062011719 36.78570175170898 -335.0421142578125 35.18770217895508 -335.0421142578125 33.22350311279297 L -335.0421142578125 25.41960334777832 C -335.0421142578125 23.45540237426758 -336.6401062011719 21.85740280151367 -338.6043090820313 21.85740280151367 Z"/></g></g></svg>