<?xml version="1.0" encoding="UTF-8"?> <svg xmlns="http://www.w3.org/2000/svg" width="211" height="47" viewBox="0 0 211 47" fill="none"><path d="M39.8044 18.9986H46.3579V30.5725H50.9776V18.9986H57.531V15.1224H39.8044V18.9986Z" fill="white"></path><path d="M59.6796 30.5727H64.3529V26.5327H71.6585C72.1419 26.5327 72.5179 26.5873 72.7865 26.7511C73.0551 26.8603 73.27 27.1333 73.3774 27.4062C73.4848 27.7338 73.5386 28.1705 73.5386 28.6619V30.5727H78.2119V27.9522C78.2119 27.297 78.1582 26.8057 77.9971 26.3689C77.8896 25.9322 77.6748 25.6046 77.4599 25.3862C77.245 25.1133 76.9764 24.9495 76.6541 24.8403C76.3318 24.7311 76.0095 24.6219 75.6872 24.5673V24.5127C76.2244 24.4036 76.6541 24.1852 76.9764 23.9668C77.2987 23.7484 77.5673 23.4755 77.7822 23.1479C77.9434 22.8203 78.1045 22.4928 78.1582 22.056C78.2119 21.6193 78.2657 21.1825 78.2657 20.6366V19.6539C78.2657 18.9442 78.2119 18.3436 78.0508 17.7431C77.8896 17.1972 77.6748 16.7058 77.3525 16.2691C77.0302 15.8869 76.5467 15.5594 75.9558 15.341C75.3649 15.1226 74.6129 15.0134 73.7534 15.0134H59.6796V30.5727ZM64.3529 18.9988H71.6047C72.0882 18.9988 72.5179 19.0534 72.8402 19.108C73.1625 19.2172 73.3774 19.3263 73.5386 19.5993C73.6997 19.8177 73.7534 20.1998 73.7534 20.6366V21.1279C73.7534 21.5101 73.6997 21.7831 73.5923 22.056C73.4848 22.2744 73.27 22.4928 73.0551 22.602C72.7865 22.7112 72.4642 22.7657 72.0345 22.7657H64.3529V18.9988Z" fill="white"></path><path d="M81.1665 25.0585C81.1665 26.3142 81.3814 27.4061 81.8111 28.225C82.2408 29.0439 82.9392 29.699 83.8524 30.0812C84.7655 30.5179 85.9473 30.6817 87.344 30.6817H94.0049C95.4015 30.6817 96.5833 30.4633 97.4965 30.0812C98.4097 29.6444 99.108 29.0439 99.5377 28.225C99.9675 27.4061 100.182 26.3142 100.182 25.0585V15.1224H95.6164V24.0758C95.6164 24.731 95.5627 25.2769 95.3478 25.659C95.1866 26.0412 94.9181 26.3688 94.542 26.5325C94.166 26.6963 93.6288 26.8055 93.038 26.8055H88.4183C87.7737 26.8055 87.2902 26.6963 86.9142 26.5325C86.5382 26.3688 86.2696 26.0412 86.1085 25.659C85.9473 25.2769 85.8399 24.731 85.8399 24.0758V15.1224H81.1665V25.0585Z" fill="white"></path><path d="M103.19 25.1677C103.19 26.0412 103.298 26.8601 103.459 27.5152C103.674 28.1704 103.942 28.7163 104.318 29.0984C104.694 29.5352 105.178 29.8628 105.715 30.0811C106.252 30.3541 106.897 30.5179 107.595 30.6271C108.293 30.7363 109.045 30.7909 109.905 30.7909H117.425C118.338 30.7909 119.144 30.7363 119.789 30.5725C120.433 30.4087 120.971 30.1903 121.4 29.9174C121.83 29.6444 122.152 29.3168 122.367 28.9347C122.582 28.5525 122.743 28.1158 122.851 27.679C122.958 27.1877 123.012 26.6963 122.958 26.205V24.7309H118.285C118.285 25.2223 118.231 25.6044 118.177 25.8774C118.07 26.1504 117.962 26.3688 117.748 26.5325C117.533 26.6963 117.264 26.7509 116.888 26.8055C116.512 26.8601 116.082 26.8601 115.599 26.8601H110.657C110.12 26.8601 109.636 26.8055 109.314 26.6963C108.938 26.5871 108.669 26.4233 108.508 26.1504C108.293 25.8774 108.186 25.6044 108.132 25.1677C108.078 24.7855 108.025 24.2942 108.025 23.7483V22.0558C108.025 21.5645 108.078 21.1277 108.132 20.7456C108.186 20.3634 108.347 20.0359 108.562 19.7629C108.777 19.4899 109.045 19.2716 109.475 19.1624C109.851 18.9986 110.335 18.944 110.979 18.944H116.029C116.512 18.944 116.888 18.9986 117.21 19.0532C117.533 19.1624 117.801 19.2716 117.962 19.4899C118.124 19.7083 118.231 19.9813 118.231 20.3634V20.8002H122.904C122.904 20.0905 122.904 19.4353 122.851 18.8348C122.797 18.2889 122.689 17.7429 122.475 17.3062C122.313 16.8694 122.045 16.4873 121.669 16.2143C121.347 15.8867 120.863 15.6684 120.326 15.45C119.789 15.2862 119.09 15.1224 118.285 15.0132C117.479 14.9041 116.512 14.9041 115.438 14.9041H109.959C109.099 14.9041 108.347 14.9586 107.649 15.0678C106.95 15.177 106.306 15.3408 105.769 15.6138C105.231 15.8867 104.748 16.2143 104.372 16.5965C103.996 17.0332 103.727 17.5791 103.512 18.1797C103.298 18.8348 103.244 19.5991 103.244 20.5272V25.1677H103.19Z" fill="white"></path><path d="M125.966 30.5725H130.586V24.6764H132.681L139.395 30.5725H145.949L136.763 22.711L144.982 15.1224H138.643L132.788 20.8002H130.586V15.1224H125.966V30.5725Z" fill="white"></path><path d="M152.503 18.944H159.325C159.808 18.944 160.185 18.9986 160.453 19.1624C160.722 19.2716 160.937 19.4899 161.044 19.7083C161.151 19.9813 161.205 20.2543 161.205 20.5818V21.1824C161.205 21.5099 161.151 21.7829 161.044 22.0013C160.937 22.2742 160.775 22.438 160.561 22.6018C160.346 22.7656 160.023 22.8202 159.701 22.8202H152.449V18.944H152.503ZM147.83 30.5725H152.503V26.6963H161.742C162.387 26.6963 162.978 26.5871 163.461 26.4234C163.945 26.2596 164.374 25.9866 164.697 25.659C165.019 25.3315 165.288 24.9493 165.502 24.5126C165.717 24.0758 165.825 23.6391 165.932 23.1477C166.04 22.6564 166.04 22.2196 166.04 21.7283V20.418C166.04 19.8175 165.986 19.217 165.878 18.7256C165.771 18.1797 165.61 17.6883 165.341 17.2516C165.073 16.8148 164.75 16.4327 164.374 16.1051C163.945 15.7776 163.408 15.5592 162.817 15.3954C162.172 15.2316 161.42 15.1224 160.561 15.1224H147.883V30.5725H147.83Z" fill="white"></path><path d="M176.138 18.7256L179.146 24.5126H173.183L176.138 18.7256ZM164.911 30.5725H170.121L171.464 27.8428H180.919L182.369 30.5725H187.526L179.2 15.1224H173.13L164.911 30.5725Z" fill="white"></path><path d="M194.402 18.944H202.674C203.158 18.944 203.588 18.9986 203.964 19.0532C204.34 19.1624 204.608 19.2716 204.823 19.49C205.038 19.7083 205.199 19.9813 205.307 20.3635C205.414 20.7456 205.468 21.1824 205.468 21.7283V23.8029C205.468 24.3488 205.414 24.7856 205.307 25.1677C205.199 25.5499 205.038 25.8229 204.823 26.0412C204.608 26.2596 204.34 26.3688 203.964 26.478C203.588 26.5872 203.212 26.5872 202.674 26.5872H194.402V18.944ZM189.729 30.5725H203.802C204.984 30.5725 205.951 30.4633 206.757 30.245C207.563 30.0266 208.207 29.699 208.691 29.3169C209.174 28.8801 209.55 28.3342 209.765 27.6245C209.98 26.9693 210.087 26.1504 210.087 25.1677V20.4727C210.087 19.5446 209.98 18.7257 209.765 18.0159C209.55 17.3062 209.174 16.7603 208.691 16.3235C208.207 15.8868 207.563 15.5592 206.757 15.3954C205.951 15.1771 204.984 15.0679 203.802 15.0679H189.729V30.5725Z" fill="white"></path><path fill-rule="evenodd" clip-rule="evenodd" d="M13.7516 36.2506C14.5037 36.2506 15.0945 36.8511 15.0945 37.6155C15.0945 38.3798 14.5037 38.9803 13.7516 38.9803C12.9996 38.9803 12.4087 38.3798 12.4087 37.6155C12.4087 36.9057 12.9996 36.2506 13.7516 36.2506Z" fill="white"></path><path fill-rule="evenodd" clip-rule="evenodd" d="M5.21055 0V5.2956H11.1194V10.5912H5.21055V34.94H11.1194V40.2356H4.35108C1.98753 40.2356 0 38.2703 0 35.8135V7.9707V5.2956V0H5.21055ZM23.152 5.2956H16.33V10.5912H22.2388V34.94H16.33V37.233V40.2356V45.5312H21.5405V40.2356H23.0983C25.4619 40.2356 27.4494 38.2703 27.4494 35.8135V9.7177C27.4494 7.31557 25.5156 5.2956 23.152 5.2956Z" fill="white"></path></svg> 